<svg width="29" height="27" viewBox="0 0 29 27" fill="none" xmlns="http://www.w3.org/2000/svg">
<mask id="mask0_5_1365" style="mask-type:luminance" maskUnits="userSpaceOnUse" x="0" y="12" width="25" height="4">
<path d="M23.9566 14.7158C23.9566 14.6158 23.9566 14.6158 23.9566 14.7158V14.7158ZM24.9566 14.6158C24.6566 14.5158 24.3566 14.6158 24.0566 14.7158C24.2566 14.7158 24.9566 15.0158 24.9566 14.6158ZM24.0566 15.3158L24.3566 15.2158C24.1566 15.1158 24.2566 15.3158 24.0566 15.3158ZM24.0566 15.0158V14.9158L23.8566 15.0158H24.0566ZM14.3566 13.4158C14.3566 13.3158 14.3566 13.3158 14.3566 13.2158V13.4158ZM14.0566 13.7158C14.0566 13.7158 13.9566 13.7158 13.8566 13.7158C13.9566 13.8158 14.0566 13.8158 14.0566 13.7158ZM14.8566 13.4158H14.7566C14.7566 13.4158 14.7566 13.5158 14.8566 13.4158ZM19.7566 14.1158C19.8566 14.0158 19.9566 13.9158 20.0566 13.9158C19.7566 13.8158 19.8566 14.0158 19.7566 14.1158ZM12.2566 14.9158L12.1566 14.8158C12.1566 14.8158 12.1566 14.9158 12.2566 14.9158ZM14.1566 14.9158C14.1566 14.8158 14.1566 14.8158 14.1566 14.7158V14.9158ZM15.1566 13.6158L15.2566 13.5158C15.1566 13.5158 15.1566 13.6158 15.1566 13.6158ZM11.6566 14.9158C11.6566 15.0158 11.5566 15.1158 11.5566 15.1158C11.6566 15.1158 11.6566 15.0158 11.6566 14.9158ZM14.8566 14.8158C14.7566 14.8158 14.7566 14.8158 14.6566 14.9158C14.7566 14.9158 14.7566 14.9158 14.8566 14.8158Z" fill="white"/>
<path d="M5.95625 15.016L6.35625 14.816C6.35625 14.916 6.55625 14.916 6.45625 15.016L6.55625 14.916V15.016C7.25625 15.216 7.55625 14.516 8.35625 15.016L8.65625 14.816C8.75625 14.816 8.75625 15.016 8.95625 15.116C8.85625 14.916 9.15625 15.116 9.15625 14.916C9.25625 15.016 9.15625 15.016 9.15625 15.116C9.55625 15.316 9.75625 15.016 10.1562 15.116C9.95625 15.016 9.65625 14.916 9.45625 14.816C9.75625 14.716 9.85625 14.916 10.1562 14.816L10.0562 14.916C10.2562 15.216 10.5562 14.816 10.6562 15.116C10.8562 15.116 10.9563 14.816 11.1562 14.816V15.116H11.3562V14.916C11.4563 14.916 11.4563 14.916 11.4563 15.016C11.5563 14.816 11.7563 14.916 11.9563 14.816V14.916C11.9563 14.916 11.9563 14.916 11.9563 14.816C12.0563 15.016 12.1562 14.916 12.2563 15.016C12.1562 15.016 12.0562 15.116 12.0562 15.016C11.9562 15.216 12.2562 15.116 12.3562 15.116C12.2562 15.016 12.3562 15.016 12.4563 15.016C12.4563 15.016 12.4563 15.016 12.4563 15.116C12.6562 15.216 12.6562 14.816 12.8562 15.116V14.916L13.0562 15.016C12.9562 14.716 13.2563 15.016 13.2563 14.716C13.4563 14.716 13.2562 14.916 13.3562 14.916C13.5562 15.016 13.7562 14.716 13.8562 14.816C13.9563 14.716 14.1562 14.816 14.2563 14.716V14.816C14.3563 14.816 14.3562 14.716 14.4563 14.716C14.4563 14.716 14.4563 14.716 14.4563 14.816C14.6562 14.716 14.8562 14.716 15.0562 14.716C15.0562 14.816 15.0563 14.916 14.9563 14.916C15.1562 15.016 15.4563 14.716 15.7563 14.816V14.916L15.8562 14.816C15.8562 14.816 15.8562 14.916 15.8562 15.016C16.1562 15.016 16.4562 15.116 16.5562 14.816C16.4562 14.916 16.7563 15.016 16.5562 15.116C16.8562 14.916 17.1562 15.016 17.4562 15.016L17.5562 14.916H17.4562C17.5562 14.916 17.6562 14.816 17.7563 14.816C17.7563 14.916 17.8562 15.016 17.9562 15.016C17.9562 14.816 18.3562 15.216 18.4562 15.016C18.4562 15.016 18.3562 15.016 18.4562 15.116C18.8562 15.116 19.3563 14.916 19.8563 15.116C19.8563 14.816 20.2562 14.916 20.4562 14.716C20.5562 14.916 20.3563 14.816 20.2563 14.916C20.3563 14.916 20.3562 15.116 20.5562 15.016V15.116C20.6562 15.116 20.4563 14.916 20.7563 14.916V15.016L20.8563 14.816C21.3563 14.916 21.6562 14.816 22.1562 15.016C22.1562 15.016 22.1562 14.916 22.0562 14.916C22.2563 14.916 22.3563 14.716 22.6562 14.916V15.016C23.0562 15.116 22.9563 14.916 23.3563 14.816C23.2563 14.816 23.0562 14.916 23.0562 14.716C23.0562 14.616 23.2563 14.616 23.3563 14.716L23.2563 14.516C23.2563 14.616 23.0562 14.616 22.9562 14.616V14.516C22.8562 14.616 22.7563 14.516 22.5562 14.616H22.7563C22.7563 14.816 22.4563 14.616 22.3563 14.616C22.3563 14.416 22.4563 14.516 22.2563 14.316C21.9563 14.216 22.0563 14.516 21.8563 14.616L21.9562 14.716C21.8562 14.716 21.8563 14.916 21.6562 14.816C21.6562 14.716 21.7563 14.716 21.7563 14.616C21.7563 14.516 21.6562 14.816 21.4562 14.716C21.5562 14.516 21.7562 14.516 21.9562 14.516C21.9562 14.416 21.9562 14.416 21.9562 14.316C21.4562 14.516 20.9562 14.516 20.4562 14.416C20.6562 14.216 20.3563 14.416 20.3563 14.216C20.3563 14.416 20.1562 14.216 20.0562 14.316C19.9562 14.116 20.2563 14.216 20.1562 14.116C19.9562 14.116 19.6562 14.416 19.2563 14.316C19.2563 14.216 19.3563 14.216 19.3563 14.216C19.1562 14.216 18.9563 14.616 18.7563 14.316C18.8563 14.216 18.9562 14.116 19.0562 14.016C18.9562 14.016 18.9562 14.016 18.9562 13.916L19.0562 13.816C18.7563 13.716 18.9563 14.116 18.7563 14.216L18.5562 14.016C18.2563 13.916 17.9563 13.916 17.8563 14.216C17.7563 14.216 17.5562 14.216 17.6562 14.016C17.7563 13.816 17.7563 13.616 18.0562 13.716C18.1562 13.916 17.8562 13.916 17.9562 13.916C18.0562 13.916 18.3563 14.016 18.3563 13.916H18.0562C18.0562 13.716 18.1562 13.916 18.2563 13.816C18.1562 13.616 17.9563 13.816 17.8563 13.716C17.6562 13.716 17.6562 13.716 17.3563 13.816C17.3563 14.016 17.4562 13.916 17.6562 14.016C17.2563 14.016 16.7563 14.316 16.2563 14.016L16.4563 13.816C16.2563 13.816 16.0562 13.916 16.0562 13.716C16.2562 13.816 16.1562 13.616 16.2563 13.616C16.2563 13.616 16.3563 13.616 16.2563 13.516C16.1562 13.616 15.9563 13.716 15.8562 13.816C15.9563 13.716 15.7563 13.716 15.7563 13.616C15.6562 13.616 15.7563 13.716 15.7563 13.816C15.6562 13.816 15.5563 13.916 15.4563 13.816C15.3562 13.716 15.5562 13.716 15.5562 13.616L15.1562 13.816C15.1562 13.816 15.0562 13.916 15.0562 13.816C14.9562 13.716 15.0562 13.716 15.1562 13.716C14.8562 13.516 14.8562 14.016 14.5562 13.716L14.4563 13.816V13.716L14.3562 13.816C14.1562 13.916 14.2563 13.616 14.1562 13.516C14.0562 13.516 14.0562 13.416 14.0562 13.416L13.8562 13.516C13.7562 13.716 13.4562 13.716 13.5562 14.016C13.4562 14.016 13.4563 13.916 13.4563 13.916C13.2563 13.916 13.4563 13.716 13.1562 13.716C13.1562 13.616 13.1562 13.716 13.2563 13.616C13.1562 13.616 13.1562 13.616 13.1562 13.616V13.516C13.1562 13.616 13.0563 13.616 12.9563 13.616L13.0562 13.416C12.9562 13.516 12.9563 13.516 12.8562 13.516L12.9563 13.416C12.7563 13.416 12.9563 13.716 12.7563 13.516L12.9563 13.616C12.7563 13.616 12.8563 13.916 12.7563 14.016C12.5563 14.216 12.1562 13.816 12.0562 14.216C11.9562 14.116 12.0563 14.016 11.9563 13.916C12.0563 13.916 12.2563 13.816 12.2563 13.616C12.5563 13.416 12.4563 14.116 12.7563 13.816C12.6562 13.616 12.5562 13.616 12.5562 13.716C12.5562 13.616 12.6562 13.516 12.6562 13.416C12.4563 13.516 12.1562 13.316 12.0562 13.316C12.0562 13.416 11.8563 13.516 11.7563 13.416C11.7563 13.516 11.4563 13.616 11.6562 13.816C11.4563 13.816 11.4563 13.516 11.2563 13.716C11.2563 13.516 11.0562 13.616 11.1562 13.416C11.2563 13.616 11.4562 13.316 11.5562 13.216L11.2563 13.116C11.3563 13.216 11.2563 13.316 11.2563 13.316L11.1562 13.116C11.1562 13.516 10.5563 12.816 10.4563 13.216C10.5563 13.216 10.6562 13.316 10.6562 13.116C10.8562 13.216 10.6562 13.416 10.7563 13.516C10.4563 13.616 10.0563 13.416 9.75625 13.616C9.75625 13.516 9.95625 13.516 9.95625 13.416C9.65625 13.316 9.45625 13.616 9.25625 13.816V13.616C9.05625 13.816 9.15625 13.516 8.95625 13.616C8.95625 13.616 9.05625 13.716 8.95625 13.716C8.75625 13.716 8.85625 13.516 8.75625 13.516C8.55625 13.816 8.55625 13.316 8.35625 13.416V13.316C8.15625 13.416 7.75625 13.116 7.45625 13.116C7.45625 13.116 7.65625 13.116 7.65625 13.316H7.35625C7.35625 13.316 7.15625 13.216 7.25625 13.116H7.35625L7.25625 13.016C6.95625 13.116 7.35625 13.316 7.35625 13.516C7.15625 13.416 7.15625 13.616 7.05625 13.616C6.95625 13.416 7.25625 13.416 7.05625 13.216C6.95625 13.116 6.65625 13.216 6.55625 13.416C6.15625 13.216 5.75625 13.516 5.65625 13.216C5.65625 13.216 5.65625 13.316 5.55625 13.316V13.216C5.25625 13.116 5.35625 13.516 5.25625 13.416C5.25625 13.316 5.25625 13.316 5.25625 13.316C4.95625 13.216 4.85625 13.716 4.55625 13.516V13.416H4.45625L4.65625 13.516C4.55625 13.916 4.15625 13.316 3.95625 13.416C3.95625 13.316 4.15625 13.316 4.05625 13.216C3.85625 13.216 3.95625 13.616 3.75625 13.416C3.85625 13.416 3.75625 13.216 3.85625 13.116C3.75625 13.116 3.65625 13.016 3.55625 13.116L3.45625 13.016C3.35625 13.116 3.25625 13.016 3.15625 13.016V12.916C3.05625 13.316 2.85625 12.916 2.65625 12.916V12.816C2.55625 12.816 2.45625 13.016 2.25625 12.816V12.716C2.15625 12.816 1.85625 12.616 1.85625 12.816C1.75625 12.816 1.95625 12.616 1.75625 12.616C1.75625 12.716 1.65625 12.716 1.55625 12.716C1.55625 12.716 1.55625 12.716 1.45625 12.716C1.45625 12.616 1.45625 12.616 1.55625 12.616C1.55625 12.616 1.55625 12.616 1.55625 12.716V12.616C1.35625 12.516 1.45625 12.716 1.25625 12.616C1.25625 12.516 1.25625 12.516 1.25625 12.416L0.65625 12.616C0.65625 12.716 0.75625 12.716 0.75625 12.916H0.95625C1.05625 13.116 0.85625 13.116 0.85625 13.116H0.95625H1.05625C1.05625 13.516 1.65625 13.516 1.45625 13.716C1.55625 13.716 1.55625 13.616 1.65625 13.516C1.65625 13.516 1.65625 13.616 1.75625 13.616L1.55625 13.716C1.85625 13.716 1.55625 13.916 1.85625 14.016C2.05625 13.916 2.35625 14.416 2.55625 14.416C2.85625 14.416 2.35625 14.216 2.55625 14.116C2.65625 14.116 2.65625 14.216 2.75625 14.216V14.016C2.95625 14.016 2.85625 14.216 2.85625 14.116C3.05625 14.216 2.85625 14.216 2.85625 14.316C2.85625 14.316 3.05625 14.216 3.05625 14.316C3.05625 14.416 2.85625 14.416 3.05625 14.416C3.45625 14.316 3.65625 14.516 4.05625 14.516V14.616C4.05625 14.616 4.15625 14.516 4.15625 14.616V14.716C4.35625 14.616 4.65625 14.616 4.85625 14.616L4.65625 14.816L4.85625 14.716V14.916C4.85625 14.716 5.15625 14.816 5.35625 14.816V14.916L5.45625 14.816V14.916C5.55625 14.916 5.65625 14.716 5.85625 14.816C5.85625 14.716 5.85625 14.916 5.95625 15.016ZM11.3562 14.816C11.1562 14.716 11.2562 14.816 11.3562 14.816V14.816ZM19.9562 14.916H19.7563C19.8563 15.016 19.9562 14.916 19.9562 14.916C19.9562 15.016 19.9562 15.016 19.9562 14.916ZM8.15625 14.616C8.15625 14.416 8.25625 14.616 8.35625 14.516C8.25625 14.616 8.25625 14.816 8.15625 14.616ZM10.9563 14.616C10.9563 14.716 10.8563 14.716 10.7563 14.816C10.6562 14.816 10.7563 14.716 10.7563 14.616H10.6562C10.6562 14.416 10.8562 14.716 10.9563 14.616ZM14.5562 14.716C14.6562 14.716 14.7563 14.616 14.7563 14.616V14.516C14.6562 14.516 14.4563 14.516 14.4563 14.616C14.4563 14.516 14.4562 14.816 14.5562 14.716ZM9.35625 14.316C9.45625 14.316 9.45625 14.016 9.65625 14.116L9.55625 14.216V14.316C9.55625 14.116 9.45625 14.316 9.35625 14.316ZM15.7563 14.616C15.8563 14.616 15.9563 14.516 15.9563 14.416C15.9563 14.416 15.9563 14.416 15.9563 14.316C15.9563 14.416 15.7563 14.516 15.7563 14.616C15.6562 14.616 15.6562 14.616 15.7563 14.616ZM15.5562 14.416C15.4562 14.416 15.4563 14.216 15.3562 14.316C15.3562 14.416 15.4563 14.716 15.2563 14.616C15.3563 14.416 15.3562 14.316 15.4563 14.216L15.5562 14.416ZM15.3562 14.716L15.1562 14.616C15.2563 14.416 15.2562 14.616 15.3562 14.716C15.4563 14.816 15.4563 14.816 15.3562 14.716ZM17.0562 14.816C17.0562 14.916 17.0562 14.916 16.9562 14.916L17.0562 14.816C16.9562 14.816 16.8562 14.716 17.0562 14.816ZM15.5562 14.716H15.7563C15.7563 14.716 15.5562 14.616 15.5562 14.716ZM16.5562 14.616C16.6562 14.616 16.7563 14.616 16.8563 14.616C16.8563 14.716 16.6562 14.716 16.5562 14.616ZM21.4562 14.816L21.3563 14.716H21.4562V14.816ZM18.3563 14.316C18.6562 14.516 18.8562 14.516 19.0562 14.516C19.1562 14.616 18.9562 14.716 18.9562 14.816C18.9562 14.316 18.7563 14.816 18.5562 14.616C18.5562 14.616 18.6562 14.616 18.6562 14.516C18.5562 14.516 18.5562 14.416 18.4562 14.516V14.616C18.4562 14.616 18.4562 14.616 18.4562 14.516C18.4562 14.416 18.4563 14.416 18.3563 14.316ZM16.4563 14.216C16.4563 14.216 16.5563 14.316 16.4563 14.416C16.3562 14.316 16.3562 14.216 16.4563 14.216ZM16.4563 14.016L16.2563 14.216L16.3562 14.116L16.1562 14.216C16.1562 14.116 16.2562 14.016 16.3562 14.016C16.3562 13.916 16.4563 13.916 16.4563 14.016ZM13.3562 14.116H13.2563C13.3563 14.016 13.4562 14.016 13.5562 14.016C13.3562 13.716 13.5563 14.116 13.2563 13.916C13.5563 13.916 13.3562 13.716 13.3562 13.616C13.3562 13.816 12.9563 13.716 13.1562 14.116C13.1562 14.016 13.3562 14.416 13.3562 14.116ZM6.55625 13.616C6.55625 13.416 6.85625 13.616 6.85625 13.716C6.85625 13.616 6.65625 13.616 6.55625 13.616ZM4.75625 13.616C4.85625 13.616 4.95625 13.416 5.05625 13.616L4.85625 13.716C4.85625 13.616 4.75625 13.716 4.75625 13.616ZM3.45625 13.516V13.716H3.55625L3.45625 13.516ZM3.65625 13.216C3.65625 13.216 3.45625 13.216 3.55625 13.316L3.65625 13.216ZM2.35625 13.416V13.216H2.25625L2.35625 13.416ZM2.45625 13.516V13.416C2.45625 13.416 2.55625 13.316 2.65625 13.416C2.65625 13.516 2.55625 13.416 2.55625 13.516C2.55625 13.516 2.65625 13.616 2.75625 13.516C2.65625 13.316 2.65625 13.316 2.65625 13.216C2.45625 13.116 2.45625 13.316 2.45625 13.416C2.45625 13.416 2.45625 13.416 2.45625 13.516ZM3.15625 13.616C3.15625 13.516 3.15625 13.516 3.15625 13.616C2.95625 13.516 2.85625 13.416 2.95625 13.216H3.05625C2.95625 13.216 3.05625 13.216 3.05625 13.316C3.15625 13.416 3.15625 13.316 3.25625 13.216C3.15625 13.316 3.05625 13.416 3.15625 13.616C3.15625 13.516 3.15625 13.516 3.15625 13.616C3.25625 13.516 3.25625 13.516 3.25625 13.616C3.25625 13.616 3.25625 13.516 3.15625 13.616C3.25625 13.616 3.25625 13.616 3.15625 13.616ZM2.35625 13.616V13.716H2.25625L2.35625 13.616ZM6.15625 13.716C6.15625 13.716 6.35625 13.716 6.35625 13.616L6.45625 13.816C6.35625 13.816 6.25625 13.916 6.35625 13.916C6.15625 13.816 6.15625 13.916 6.15625 13.716ZM11.1562 13.916C11.1562 14.016 10.8562 13.816 10.8562 14.016C10.7562 13.816 11.0562 13.916 11.1562 13.916ZM11.2563 14.216C11.3563 14.116 11.3562 14.016 11.4563 14.116H11.3562C11.4563 14.216 11.4563 14.216 11.2563 14.216ZM8.45625 14.216H8.55625L8.65625 14.116L8.45625 14.216ZM7.15625 14.416C7.25625 14.316 7.15625 14.216 7.15625 14.216C7.15625 14.216 7.15625 14.216 7.25625 14.216C7.25625 14.216 7.25625 14.216 7.15625 14.216C7.05625 14.216 6.95625 14.216 6.95625 14.316C7.05625 14.216 7.15625 14.216 7.15625 14.416ZM4.35625 14.416C4.45625 14.416 4.45625 14.316 4.55625 14.416C4.45625 14.416 4.35625 14.416 4.35625 14.416ZM7.85625 14.516C7.85625 14.416 8.05625 14.416 7.95625 14.316H7.85625C7.95625 14.316 7.85625 14.116 8.05625 14.216H7.95625C8.05625 14.316 7.85625 14.416 8.05625 14.416C8.05625 14.516 7.95625 14.616 7.85625 14.516ZM4.15625 14.616C4.25625 14.616 4.15625 14.316 4.35625 14.516C4.25625 14.516 4.35625 14.716 4.15625 14.616Z" fill="white"/>
<path d="M6.35625 13.4164C6.35625 13.4164 6.25625 13.4164 6.15625 13.4164C6.25625 13.4164 6.35625 13.5164 6.35625 13.4164ZM22.7563 14.1164C22.8563 13.8164 22.6562 14.0164 22.5562 14.0164C22.6562 14.0164 22.7563 14.2164 22.7563 14.1164ZM22.1562 14.5164C22.1562 14.4164 22.2563 14.4164 22.3563 14.4164C22.2563 14.3164 22.1562 14.3164 22.1562 14.5164ZM22.7563 14.4164C22.6562 14.3164 22.4563 14.3164 22.3563 14.3164C22.4563 14.3164 22.5562 14.4164 22.7563 14.4164ZM20.0562 14.2164C20.1562 14.0164 20.3563 14.1164 20.3563 14.1164C19.8563 13.9164 20.3562 13.8164 20.4562 13.7164C20.1562 13.8164 20.1562 14.0164 20.0562 14.2164ZM19.1562 14.1164C18.9563 14.1164 18.9562 14.3164 18.9562 14.4164C19.1562 14.5164 19.2562 14.3164 19.4562 14.2164C19.2562 14.3164 19.1562 14.3164 19.1562 14.1164ZM18.3563 13.7164C18.3563 13.7164 18.4562 13.7164 18.4562 13.6164H18.1562C18.0562 13.6164 18.2563 13.6164 18.3563 13.7164ZM17.8563 13.9164C17.6563 13.9164 17.6562 13.6164 17.5562 13.7164L17.6562 14.1164L17.8563 13.9164ZM17.0562 13.7164L17.1562 13.3164C16.9563 13.4164 17.0562 13.7164 17.0562 13.7164ZM16.5562 13.5164L16.6562 13.4164L16.2563 13.5164H16.5562ZM9.05625 13.4164C9.05625 13.7164 9.55625 13.6164 9.65625 13.7164C9.55625 13.3164 9.35625 13.8164 9.05625 13.4164ZM6.85625 13.6164L7.25625 13.5164C6.85625 13.4164 7.15625 13.5164 6.85625 13.6164Z" fill="white"/>
</mask>
<g mask="url(#mask0_5_1365)">
<path d="M1.15625 12.6162C1.45625 13.0162 2.05625 13.2162 2.35625 13.6162C2.45625 13.7162 2.55625 13.7162 2.75625 13.8162C3.55625 14.1162 3.95625 14.4162 4.55625 14.2162C4.65625 14.2162 5.05625 14.4162 5.15625 14.3162C5.45625 13.9162 5.45625 14.3162 5.75625 14.3162C5.95625 14.3162 6.15625 14.3162 6.35625 14.2162C6.95625 14.1162 7.45625 14.1162 8.05625 14.2162C8.75625 14.4162 9.15625 14.0162 9.55625 14.3162C9.65625 14.4162 9.85625 14.3162 9.95625 14.2162C10.0563 14.2162 10.2563 14.2162 10.2563 14.1162C10.3563 14.1162 10.4562 13.9162 10.5562 13.9162C11.2562 14.1162 11.8562 14.0162 12.6562 14.1162C12.8563 14.1162 13.0563 14.1162 13.2563 14.2162C13.9563 14.3162 14.1563 14.0162 14.9563 14.1162C15.1563 14.1162 15.8562 14.2162 16.0562 14.2162C16.6562 14.1162 16.8563 14.4162 17.3563 14.5162C17.5563 14.5162 17.8562 14.5162 18.0562 14.4162C18.2562 14.3162 21.7562 14.6162 21.9562 14.5162" stroke="#1D1D1B" stroke-width="3" stroke-miterlimit="10" stroke-linejoin="round" stroke-dasharray="20 20"/>
</g>
<mask id="mask1_5_1365" style="mask-type:luminance" maskUnits="userSpaceOnUse" x="7" y="7" width="21" height="12">
<path d="M8.15616 18.6154C8.45616 18.6154 8.75616 18.5154 8.95616 18.3154C8.65616 18.3154 8.05616 18.2154 8.15616 18.6154ZM8.75616 17.6154L8.45616 17.8154C8.75616 17.9154 8.65616 17.7154 8.75616 17.6154ZM8.85616 18.0154L8.95616 18.1154L9.05616 17.9154L8.85616 18.0154ZM24.5562 16.2154C24.5562 16.3154 24.5562 16.4154 24.6562 16.4154L24.5562 16.2154ZM24.9562 15.4154L25.0562 15.3154C25.0562 15.3154 25.0562 15.3154 24.9562 15.4154ZM23.8562 16.3154H23.9562C23.9562 16.3154 23.9562 16.3154 23.8562 16.3154ZM16.0562 17.5154C15.9562 17.6154 15.9562 17.7154 15.8562 17.8154C16.1562 17.9154 16.0562 17.6154 16.0562 17.5154ZM26.3562 15.7154V15.6154C26.2562 15.6154 26.2562 15.7154 26.3562 15.7154ZM24.3562 13.5154C24.3562 13.6154 24.3562 13.6154 24.4562 13.6154L24.3562 13.5154ZM25.3562 15.6154C25.2562 15.7154 25.2562 15.7154 25.2562 15.8154C25.2562 15.8154 25.3562 15.7154 25.3562 15.6154ZM25.1562 15.3154C25.0562 15.3154 25.0562 15.3154 25.1562 15.3154V15.3154ZM16.0562 17.5154L16.1562 17.4154C16.0562 17.4154 16.0562 17.4154 16.0562 17.5154ZM9.85616 18.4154C9.95616 18.4154 9.95616 18.3154 9.95616 18.2154C9.95616 18.3154 9.85616 18.3154 9.85616 18.4154ZM11.9562 9.71543C12.0562 9.71543 12.0562 9.71543 11.9562 9.71543C11.9562 9.61543 12.0562 9.61543 11.9562 9.71543Z" fill="white"/>
<path d="M15.6559 13.9154L16.3559 13.7154C16.3559 13.8154 16.6559 14.0154 16.4559 14.1154L16.7559 13.9154V14.1154C17.8559 14.7154 18.7559 13.7154 19.8559 14.6154V14.7154L20.4559 14.5154C20.5559 14.6154 20.6559 14.9154 20.8559 15.0154C20.7559 14.7154 21.2559 15.0154 21.3559 14.8154C21.5559 15.0154 21.3559 15.0154 21.3559 15.1154C21.9559 15.5154 22.4559 15.1154 23.1559 15.5154C22.7559 15.2154 22.4559 15.0154 21.9559 14.8154C22.4559 14.7154 22.5559 15.1154 23.1559 15.1154L22.8559 15.2154C23.1559 15.7154 23.7559 15.1154 23.8559 15.7154C24.1559 15.7154 24.4559 15.3154 24.8559 15.4154L24.7559 15.8154L25.1559 15.9154V15.6154C25.2559 15.6154 25.3559 15.7154 25.3559 15.8154C25.5559 15.5154 25.9559 15.8154 26.3559 15.6154L26.4559 15.8154C26.4559 15.8154 26.4559 15.7154 26.5559 15.7154C26.6559 16.0154 26.9559 15.9154 26.9559 16.2154C26.8559 16.2154 26.5559 16.3154 26.5559 16.2154C26.2559 16.4154 26.9559 16.4154 27.1559 16.5154C26.9559 16.3154 27.1559 16.3154 27.3559 16.3154V16.4154C27.3559 16.4154 27.4559 16.4154 27.4559 16.5154L26.5559 12.7154C26.3559 12.8154 26.4559 13.3154 26.0559 12.9154L26.1559 13.2154L25.8559 13.1154C26.0559 13.7154 25.5559 13.2154 25.6559 13.8154C25.3559 13.9154 25.5559 13.5154 25.4559 13.6154C25.1559 13.6154 24.8559 14.2154 24.6559 13.9154C24.4559 14.2154 24.1559 14.1154 24.0559 14.3154L23.9559 14.1154C23.8559 14.2154 23.7559 14.3154 23.6559 14.3154V14.2154C23.3559 14.4154 23.0559 14.5154 22.6559 14.6154C22.6559 14.4154 22.5559 14.3154 22.7559 14.2154C22.3559 14.0154 22.0559 14.7154 21.5559 14.7154V14.6154L21.1559 14.5154C21.1559 14.4154 21.1559 14.3154 21.0559 14.2154C20.5559 14.3154 20.0559 14.4154 19.9559 14.9154C20.0559 14.8154 19.6559 14.7154 19.8559 14.4154C19.5559 14.8154 18.9559 14.9154 18.4559 15.1154L18.2559 15.3154L18.3559 15.2154C18.1559 15.3154 18.0559 15.4154 17.8559 15.6154C17.7559 15.5154 17.6559 15.3154 17.4559 15.3154C17.5559 15.6154 16.7559 15.2154 16.6559 15.5154C16.5559 15.4154 16.7559 15.4154 16.6559 15.3154C16.0559 15.5154 15.2559 16.1154 14.4559 16.0154C14.6559 16.6154 13.9559 16.6154 13.6559 16.9154C13.4559 16.6154 13.8559 16.7154 13.8559 16.4154C13.6559 16.5154 13.6559 16.0154 13.3559 16.3154C13.3559 16.2154 13.3559 16.2154 13.4559 16.2154C13.2559 16.2154 13.6559 16.6154 13.2559 16.6154L13.1559 16.4154L13.0559 16.8154C12.2559 16.8154 11.7559 17.1154 11.0559 17.0154C11.0559 17.1154 11.1559 17.2154 11.1559 17.2154C10.8559 17.2154 10.6559 17.7154 10.2559 17.5154L10.3559 17.4154C9.75586 17.3154 9.95586 17.8154 9.35586 18.0154C9.45586 18.0154 9.75586 17.8154 9.85586 18.0154C9.85586 18.2154 9.55586 18.2154 9.35586 18.1154L9.55586 18.4154C9.55586 18.2154 9.85586 18.2154 9.95586 18.0154C9.95586 18.0154 9.95586 18.1154 9.95586 18.2154C10.1559 18.1154 10.2559 18.0154 10.4559 17.9154H10.1559C10.1559 17.6154 10.6559 17.8154 10.7559 17.7154C10.8559 18.0154 10.6559 18.0154 10.9559 18.2154C11.5559 18.2154 11.1559 17.8154 11.5559 17.5154L11.4559 17.4154C11.5559 17.3154 11.6559 17.0154 11.9559 17.2154C12.0559 17.4154 11.8559 17.4154 11.7559 17.6154C11.8559 17.7154 11.9559 17.2154 12.1559 17.4154C12.0559 17.7154 11.8559 17.9154 11.4559 17.9154C11.5559 18.0154 11.5559 18.1154 11.5559 18.2154C12.2559 17.7154 12.9559 17.4154 13.7559 17.3154C13.4559 17.8154 13.9559 17.3154 13.9559 17.7154C13.9559 17.4154 14.2559 17.6154 14.4559 17.5154C14.6559 17.8154 14.1559 17.8154 14.3559 18.0154C14.7559 17.8154 15.0559 17.2154 15.6559 17.2154C15.6559 17.3154 15.5559 17.4154 15.5559 17.4154C15.8559 17.2154 16.0559 16.4154 16.4559 16.9154C16.3559 17.1154 16.2559 17.3154 16.1559 17.5154C16.1559 17.5154 16.2559 17.5154 16.3559 17.6154V17.8154C16.7559 17.8154 16.4559 17.3154 16.6559 16.9154L17.0559 17.2154C17.5559 17.3154 17.9559 17.0154 18.0559 16.5154C18.1559 16.5154 18.4559 16.4154 18.4559 16.7154C18.3559 17.1154 18.3559 17.4154 17.8559 17.5154C17.6559 17.2154 18.0559 17.1154 17.9559 17.1154C17.7559 17.2154 17.3559 17.1154 17.2559 17.3154L17.7559 17.2154C17.8559 17.6154 17.5559 17.3154 17.5559 17.5154C17.8559 17.8154 17.9559 17.4154 18.2559 17.5154C18.6559 17.3154 18.5559 17.4154 18.9559 17.2154C18.8559 16.8154 18.7559 17.0154 18.4559 16.9154C19.0559 16.7154 19.6559 15.9154 20.5559 16.3154L20.2559 16.7154C20.5559 16.7154 20.8559 16.3154 20.9559 16.7154C20.6559 16.6154 20.8559 16.9154 20.7559 17.0154C20.7559 17.0154 20.6559 17.1154 20.7559 17.2154C20.9559 16.9154 21.1559 16.7154 21.3559 16.5154C21.2559 16.6154 21.5559 16.7154 21.6559 16.8154C21.8559 16.7154 21.5559 16.6154 21.5559 16.5154C21.6559 16.5154 21.7559 16.1154 21.9559 16.4154C22.1559 16.6154 21.8559 16.7154 21.8559 16.9154L22.3559 16.4154V16.5154C22.3559 16.4154 22.4559 16.3154 22.5559 16.4154C22.6559 16.5154 22.5559 16.6154 22.4559 16.6154C22.9559 16.8154 22.8559 15.9154 23.3559 16.3154L23.4559 16.1154L23.5559 16.2154L23.6559 16.0154C23.9559 15.8154 23.8559 16.3154 24.0559 16.4154C24.1559 16.4154 24.3559 16.6154 24.2559 16.6154L24.5559 16.3154C24.5559 16.0154 25.1559 15.8154 24.8559 15.2154C24.9559 15.2154 25.0559 15.3154 25.0559 15.4154C25.3559 15.3154 25.1559 15.8154 25.5559 15.6154C25.5559 15.7154 25.5559 15.7154 25.4559 15.7154C25.5559 15.7154 25.6559 15.6154 25.6559 15.6154C25.6559 15.7154 25.7559 15.7154 25.7559 15.8154C25.6559 15.6154 25.8559 15.6154 25.9559 15.6154V16.0154C25.9559 15.9154 26.0559 15.7154 26.2559 15.7154C26.2559 15.7154 26.2559 15.7154 26.3559 15.7154V16.0154C26.6559 15.8154 26.1559 15.5154 26.6559 15.6154L26.1559 15.5154C26.5559 15.3154 26.2559 14.9154 26.3559 14.7154C26.5559 14.4154 26.8559 14.5154 27.1559 14.4154V14.3154C26.9559 14.3154 26.7559 14.4154 26.7559 14.5154C26.6559 14.3154 26.7559 14.2154 26.5559 14.0154C26.7559 14.0154 27.0559 13.9154 27.0559 13.6154L27.4559 15.0154C27.0559 15.4154 26.9559 14.2154 26.6559 14.8154C26.7559 15.1154 26.9559 15.0154 27.0559 14.9154C27.1559 15.1154 27.0559 15.3154 26.9559 15.5154C27.1559 15.4154 27.3559 15.4154 27.5559 15.4154L26.9559 13.2154C26.8559 13.1154 26.6559 13.1154 26.5559 13.0154C26.4559 13.1154 26.1559 13.2154 26.0559 13.1154C26.0559 13.3154 25.5559 13.3154 25.7559 13.7154C25.3559 13.7154 25.4559 13.1154 25.1559 13.5154C25.2559 13.2154 24.8559 13.2154 25.0559 13.0154C25.2559 13.3154 25.5559 12.9154 25.7559 12.8154L25.1559 12.5154C25.2559 12.6154 25.1559 12.8154 25.0559 12.8154L24.9559 12.5154C24.9559 13.1154 23.9559 11.8154 23.7559 12.5154C23.9559 12.5154 24.0559 12.8154 24.1559 12.4154C24.4559 12.7154 24.1559 12.9154 24.2559 13.1154C23.7559 13.2154 22.9559 12.7154 22.4559 13.0154C22.5559 12.8154 22.7559 12.9154 22.7559 12.6154C22.3559 12.4154 21.8559 12.9154 21.4559 13.0154L21.5559 12.7154C21.1559 12.9154 21.3559 12.5154 20.9559 12.6154C20.9559 12.6154 21.0559 12.8154 20.9559 12.8154C20.6559 12.7154 20.8559 12.5154 20.6559 12.4154C20.2559 12.8154 20.4559 12.0154 19.8559 12.2154V12.1154C19.4559 12.2154 18.8559 11.6154 18.3559 11.5154C18.3559 11.6154 18.7559 11.6154 18.7559 11.9154H18.1559C18.1559 11.8154 17.8559 11.7154 17.9559 11.6154C18.0559 11.6154 18.1559 11.7154 18.1559 11.7154L18.0559 11.5154C17.5559 11.6154 18.1559 12.0154 18.1559 12.3154C17.8559 12.1154 17.7559 12.4154 17.5559 12.4154C17.4559 12.1154 17.8559 12.1154 17.6559 11.8154C17.4559 11.6154 16.9559 11.7154 16.7559 12.0154C16.4559 11.2154 15.6559 11.6154 15.5559 11.0154C15.5559 11.0154 15.4559 11.2154 15.3559 11.1154L15.4559 11.0154C15.0559 10.7154 15.0559 11.4154 14.8559 11.2154C14.8559 11.1154 14.9559 11.1154 14.9559 11.0154C14.4559 10.7154 14.1559 11.5154 13.6559 11.0154C13.6559 10.9154 13.6559 10.9154 13.7559 10.9154C13.7559 10.8154 13.6559 10.8154 13.5559 10.9154L13.7559 11.2154C13.6559 11.5154 13.1559 10.5154 12.6559 10.5154C12.6559 10.4154 13.0559 10.5154 12.8559 10.3154C12.5559 10.2154 12.5559 10.9154 12.2559 10.5154C12.4559 10.5154 12.3559 10.1154 12.5559 10.1154C12.3559 10.0154 12.1559 9.81543 12.1559 10.0154C12.0559 9.91543 12.0559 9.91543 12.0559 9.81543C11.8559 9.91543 11.6559 9.61543 11.4559 9.51543V9.41543C11.1559 9.91543 10.9559 9.31543 10.6559 9.21543L10.7559 9.01543C10.5559 9.11543 10.2559 9.01543 10.1559 8.81543L10.2559 8.61543C10.0559 8.71543 9.75586 8.21543 9.55586 8.51543C9.45586 8.41543 9.75586 8.21543 9.45586 8.01543C9.35586 8.11543 9.15586 8.11543 9.05586 8.01543C9.05586 8.01543 9.05586 7.91543 8.95586 7.91543C8.95586 7.81543 9.05586 7.71543 9.05586 7.81543C9.15586 7.81543 9.05586 7.81543 9.05586 7.91543L9.15586 7.81543C9.05586 7.61543 9.05586 7.91543 8.75586 7.71543C8.75586 7.51543 8.85586 7.51543 8.95586 7.41543C8.95586 7.41543 8.65586 7.41543 8.45586 7.31543H7.95586C7.95586 7.41543 8.05586 7.61543 7.85586 7.71543L8.15586 7.91543C8.25586 8.21543 7.95586 8.11543 7.75586 8.11543L7.95586 8.21543V8.31543L8.15586 8.41543C7.65586 8.51543 8.65586 9.11543 8.05586 9.11543C8.15586 9.11543 8.35586 9.11543 8.45586 9.01543C8.75586 9.01543 8.65586 9.21543 8.75586 9.31543H8.35586C8.95586 9.61543 8.25586 9.61543 8.65586 10.0154C9.15586 10.1154 9.35586 10.9154 9.65586 11.1154C10.1559 11.3154 9.45586 10.7154 9.85586 10.7154C10.1559 10.8154 9.95586 10.9154 10.1559 11.1154L10.2559 10.8154C10.5559 10.9154 10.2559 11.1154 10.4559 11.1154C10.6559 11.4154 10.3559 11.2154 10.2559 11.4154C10.4559 11.3154 10.6559 11.4154 10.7559 11.5154C10.7559 11.6154 10.4559 11.5154 10.6559 11.6154C11.4559 11.7154 11.6559 12.2154 12.3559 12.4154L12.2559 12.5154C12.3559 12.5154 12.3559 12.4154 12.4559 12.5154V12.6154C12.8559 12.6154 13.3559 12.7154 13.7559 12.8154L13.5559 12.9154L13.9559 12.8154V13.1154C14.0559 12.8154 14.5559 13.2154 14.9559 13.2154V13.4154L15.1559 13.3154L15.0559 13.5154C15.2559 13.5154 15.5559 13.3154 15.8559 13.5154C15.6559 13.4154 15.6559 13.7154 15.6559 13.9154ZM25.2559 15.4154H25.3559C25.3559 15.5154 25.2559 15.5154 25.2559 15.4154H25.0559C25.0559 15.2154 25.1559 15.4154 25.2559 15.4154ZM14.9559 16.2154L15.1559 16.1154C15.0559 16.1154 14.9559 16.2154 14.9559 16.1154C14.9559 16.1154 14.8559 16.1154 14.9559 16.2154ZM24.6559 13.4154L24.7559 13.3154L24.8559 13.5154L24.6559 13.4154ZM19.7559 14.1154C19.8559 13.8154 19.9559 14.2154 20.1559 14.1154C20.0559 14.1154 19.9559 14.4154 19.7559 14.1154ZM24.6559 14.9154C24.6559 15.1154 24.3559 15.1154 24.3559 15.2154C24.2559 15.1154 24.3559 15.0154 24.4559 14.9154C24.3559 14.9154 24.3559 14.9154 24.2559 14.9154C24.2559 14.5154 24.4559 15.1154 24.6559 14.9154ZM24.3559 14.0154L24.4559 13.8154H24.3559V14.0154ZM23.3559 14.1154C23.1559 14.2154 23.0559 14.3154 23.1559 14.5154C23.1559 14.5154 23.1559 14.6154 23.2559 14.6154C23.4559 14.5154 23.7559 14.5154 23.7559 14.2154C23.5559 14.4154 23.4559 13.8154 23.3559 14.1154ZM21.9559 14.0154C22.0559 14.0154 22.2559 13.5154 22.6559 13.9154L22.4559 14.0154H22.5559V14.2154C22.4559 13.7154 22.0559 14.0154 21.9559 14.0154ZM21.5559 14.9154C21.3559 15.0154 21.2559 15.3154 21.3559 15.5154C21.2559 15.3154 21.5559 15.0154 21.6559 14.8154C21.6559 14.9154 21.6559 14.9154 21.5559 14.9154ZM21.8559 15.2154C21.9559 15.2154 22.0559 15.5154 22.1559 15.2154C22.0559 15.0154 21.9559 14.6154 22.2559 14.6154C22.1559 15.0154 22.2559 15.1154 21.9559 15.4154L21.8559 15.2154ZM22.0559 14.4154L22.4559 14.5154C22.4559 14.9154 22.2559 14.5154 22.0559 14.4154H21.9559C21.9559 14.4154 21.9559 14.4154 22.0559 14.4154ZM19.5559 15.1154L19.6559 15.0154C19.6559 14.9154 19.6559 14.9154 19.7559 14.9154L19.6559 15.0154C19.6559 15.1154 19.8559 15.2154 19.5559 15.1154ZM21.7559 14.5154L21.4559 14.6154C21.5559 14.7154 21.7559 14.7154 21.7559 14.5154ZM20.2559 15.2154C20.0559 15.2154 19.9559 15.3154 19.7559 15.3154C19.8559 15.1154 20.1559 15.0154 20.2559 15.2154ZM12.6559 17.0154L12.8559 17.2154L12.6559 17.3154V17.0154ZM14.9559 16.9154H15.0559L15.1559 17.0154L14.9559 16.9154ZM17.5559 16.6154C17.5559 16.6154 17.4559 16.6154 17.4559 16.5154C17.1559 16.4154 16.8559 16.4154 16.5559 16.5154C16.3559 16.4154 16.6559 16.1154 16.6559 16.0154C16.8559 16.9154 16.9559 15.9154 17.2559 16.1154C17.2559 16.2154 17.0559 16.2154 17.0559 16.3154C17.1559 16.4154 17.2559 16.4154 17.3559 16.3154C17.3559 16.2154 17.3559 16.2154 17.3559 16.2154V16.3154C17.3559 16.4154 17.3559 16.4154 17.4559 16.5154L17.5559 16.6154ZM20.6559 15.9154C20.6559 15.8154 20.5559 15.8154 20.6559 15.6154C20.7559 15.7154 20.7559 15.8154 20.6559 15.9154C20.6559 15.9154 20.6559 16.0154 20.5559 16.0154C20.5559 16.0154 20.6559 16.0154 20.6559 15.9154ZM20.6559 16.4154L20.9559 16.0154L20.8559 16.2154L21.0559 16.0154C21.1559 16.2154 21.0559 16.4154 20.8559 16.4154C20.7559 16.4154 20.7559 16.4154 20.6559 16.4154ZM25.3559 14.6154H25.5559C25.4559 14.7154 25.3559 14.8154 25.1559 14.9154C25.6559 15.4154 25.1559 14.8154 25.6559 14.9154C25.1559 15.0154 25.5559 15.3154 25.6559 15.5154C25.6559 15.1154 26.2559 15.2154 25.8559 14.6154C25.7559 14.7154 25.2559 14.1154 25.3559 14.6154ZM17.2559 11.8154C17.3559 11.5154 17.7559 11.9154 17.7559 12.1154C17.6559 11.9154 17.4559 11.9154 17.2559 11.8154ZM14.1559 11.0154C14.3559 11.1154 14.5559 10.8154 14.6559 11.2154H14.2559C14.1559 11.1154 14.0559 11.2154 14.1559 11.0154ZM11.8559 10.2154L11.7559 10.5154H11.8559V10.2154ZM12.2559 10.0154C12.1559 10.0154 11.9559 10.0154 12.0559 10.1154L12.2559 10.0154ZM9.95586 9.41543L10.1559 9.11543L9.95586 9.01543V9.41543ZM10.0559 9.61543C10.0559 9.61543 10.1559 9.51543 10.1559 9.41543C10.2559 9.31543 10.3559 9.41543 10.4559 9.51543C10.4559 9.61543 10.3559 9.51543 10.2559 9.51543C10.3559 9.51543 10.3559 9.71543 10.5559 9.71543C10.4559 9.51543 10.5559 9.51543 10.5559 9.31543C10.1559 9.01543 10.1559 9.31543 10.1559 9.51543C10.0559 9.51543 10.0559 9.61543 10.0559 9.61543ZM11.2559 10.2154C11.2559 10.2154 11.1559 10.1154 11.1559 10.0154C10.9559 9.81543 10.7559 9.71543 10.9559 9.51543L11.1559 9.61543C11.0559 9.61543 11.0559 9.61543 11.0559 9.71543C11.1559 9.91543 11.2559 9.71543 11.4559 9.71543C11.3559 9.81543 11.1559 9.81543 11.1559 10.1154C11.2559 10.1154 11.2559 10.2154 11.3559 10.2154C11.3559 10.2154 11.4559 10.2154 11.4559 10.3154V10.4154C11.4559 10.3154 11.3559 10.3154 11.3559 10.3154C11.3559 10.2154 11.3559 10.3154 11.2559 10.2154ZM9.85586 9.81543C9.85586 9.81543 9.85586 9.91543 9.75586 10.0154H9.65586C9.55586 9.81543 9.75586 9.71543 9.85586 9.81543ZM16.4559 11.8154C16.4559 11.8154 16.8559 11.9154 16.8559 11.7154L16.9559 12.0154C16.7559 11.9154 16.6559 12.1154 16.6559 12.2154C16.4559 12.0154 16.3559 12.1154 16.4559 11.8154ZM25.2559 13.9154C25.1559 14.0154 24.7559 13.7154 24.6559 14.0154C24.4559 13.5154 25.0559 13.7154 25.2559 13.9154ZM25.4559 14.3154C25.5559 14.2154 25.5559 13.9154 25.7559 14.2154C25.6559 14.3154 25.5559 14.1154 25.5559 14.2154C25.5559 14.4154 25.5559 14.4154 25.4559 14.3154ZM20.3559 13.5154L20.6559 13.6154L20.7559 13.4154L20.3559 13.5154ZM18.0559 13.3154H18.2559L18.1559 13.2154C18.1559 13.1154 18.0559 13.0154 18.1559 13.0154C18.0559 13.0154 17.7559 12.9154 17.8559 13.1154C17.9559 13.0154 18.1559 13.1154 18.1559 13.3154H18.0559ZM13.0559 12.1154C13.1559 12.1154 13.1559 12.0154 13.3559 12.2154C13.2559 12.3154 13.0559 12.2154 13.0559 12.1154ZM19.2559 13.8154C19.2559 13.6154 19.5559 13.8154 19.4559 13.5154H19.2559C19.4559 13.6154 19.3559 13.1154 19.5559 13.4154L19.3559 13.3154C19.5559 13.4154 19.1559 13.6154 19.4559 13.7154C19.6559 13.8154 19.3559 13.9154 19.2559 13.8154ZM12.6559 12.4154C12.8559 12.4154 12.7559 12.0154 13.0559 12.3154C12.8559 12.3154 12.8559 12.7154 12.6559 12.4154Z" fill="white"/>
<path d="M12.6562 10.1156C12.6562 10.1156 12.5563 10.0156 12.4563 10.0156C12.5563 10.1156 12.6562 10.1156 12.6562 10.1156ZM26.0562 13.0156C26.0562 13.0156 26.0562 13.1156 26.1562 13.1156C26.0562 13.1156 26.0562 13.1156 26.0562 13.0156ZM10.1562 18.6156C10.1562 18.9156 10.2562 18.6156 10.3562 18.6156C10.2562 18.6156 10.1562 18.5156 10.1562 18.6156ZM10.1562 18.3156C10.2563 18.3156 10.3562 18.3156 10.5562 18.3156C10.4562 18.3156 10.2563 18.2156 10.1562 18.3156ZM12.5562 17.8156C12.5562 18.0156 12.2563 17.9156 12.2563 17.9156C12.7563 18.0156 12.2563 18.2156 12.2563 18.4156C12.5563 18.3156 12.4562 18.1156 12.5562 17.8156ZM13.1562 17.6156H13.0562C13.0562 17.6156 13.0563 17.6156 13.1562 17.6156ZM13.3562 17.7156C13.4562 17.6156 13.4562 17.4156 13.5562 17.3156C13.3562 17.2156 13.2562 17.5156 13.1562 17.6156C13.2562 17.6156 13.3562 17.5156 13.3562 17.7156ZM18.4562 17.6156C18.4562 17.6156 18.3563 17.6156 18.3563 17.7156L18.6562 17.6156C18.7563 17.6156 18.5562 17.6156 18.4562 17.6156ZM19.2563 16.9156C19.4563 16.8156 19.4562 17.1156 19.5562 17.0156L19.4562 16.7156L19.2563 16.9156ZM20.4562 17.0156V17.4156C20.5562 17.3156 20.4562 17.0156 20.4562 17.0156ZM21.2563 17.1156L21.1562 17.2156L21.4562 17.0156L21.2563 17.1156ZM21.4562 12.4156C21.4562 12.7156 21.8562 12.7156 22.0562 12.8156C21.8562 12.4156 21.6562 12.8156 21.4562 12.4156ZM13.0562 10.4156L13.4563 10.5156C13.1563 10.2156 13.4562 10.4156 13.0562 10.4156Z" fill="white"/>
</mask>
<g mask="url(#mask1_5_1365)">
<path d="M8.45586 7.41504C8.35586 7.81504 8.85586 8.61504 9.35586 9.21504C9.55586 9.51504 10.0559 10.015 10.4559 10.215C11.0559 10.615 11.4559 10.715 12.0559 11.115C12.5559 11.415 13.1559 11.815 13.7559 11.715C13.9559 11.715 14.4559 11.915 14.6559 11.915C15.1559 12.015 15.2559 12.115 15.7559 12.215C15.9559 12.215 16.1559 12.215 16.3559 12.315L17.6559 12.815C18.7559 13.015 19.0559 13.315 19.9559 13.415C20.2559 13.415 20.5559 13.515 20.8559 13.615C20.9559 13.615 21.0559 13.715 21.1559 13.715C21.3559 13.815 21.5559 13.715 21.7559 13.715C22.4559 13.615 23.0559 13.615 23.7559 13.715C24.3559 13.815 25.9559 13.315 26.5559 14.215C27.6559 16.015 24.1559 15.015 23.2559 15.315C22.7559 15.515 22.1559 15.715 21.5559 15.915C20.3559 16.315 22.3559 15.615 17.5559 16.415C16.7559 16.515 16.4559 16.415 15.5559 16.815C15.0559 17.015 14.4559 17.115 13.9559 17.115C13.9559 17.215 13.6559 17.115 13.6559 17.115C13.4559 17.115 13.6559 17.415 13.5559 17.415C13.3559 17.415 13.2559 17.415 13.0559 17.415C11.3559 17.415 9.75586 18.015 8.25586 18.615" stroke="#1D1D1B" stroke-width="3" stroke-miterlimit="10" stroke-linejoin="round" stroke-dasharray="42 42"/>
</g>
</svg>
