<svg width="335" height="97" viewBox="0 0 335 97" fill="none" xmlns="http://www.w3.org/2000/svg">
<path d="M275.524 6.97573C273.51 7.0745 271.496 7.0745 269.482 6.77818C259.209 5.59291 252.663 6.58064 243.599 5.39537C237.456 4.60519 227.687 4.50642 221.543 3.81501C204.624 1.74079 187.805 3.1236 170.785 3.51869C162.929 3.71624 155.477 5.09905 147.621 4.90151C127.681 4.40764 107.337 8.16099 87.6983 11.5193C58.2907 16.6554 17.402 27.4216 7.5323 44.3117C6.82732 51.4233 6.6259 52.1147 9.54652 57.3496C12.87 63.276 15.0856 63.6711 17.2006 64.6588C26.8688 69.4986 35.9328 76.5115 46.7089 77.993C51.6438 78.6844 56.5786 81.1538 61.5134 81.9439C74.4045 84.0182 87.2955 88.6605 100.086 88.7592C104.718 88.7592 107.438 88.4629 111.869 89.7469C115.797 90.9322 119.624 89.5494 123.551 90.6359C126.774 91.5249 130.198 90.4384 133.522 90.4384C138.86 90.4384 146.916 93.1052 152.254 93.4015C167.361 94.0929 171.188 95.0807 182.87 93.6978C196.466 92.1175 210.868 92.8089 224.363 91.2285C231.01 90.4384 237.556 89.7469 244.203 88.9568C261.828 86.8825 279.956 84.7096 295.868 77.1041C298.99 75.6225 302.817 73.8446 305.839 75.5237C307.45 74.7336 309.263 74.536 310.975 73.8446C318.528 70.8814 326.686 61.5968 329.103 58.8312C331.117 53.3987 330.815 47.6699 331.218 40.4596C331.621 32.3602 327.995 24.656 324.47 17.2481C322.355 12.9021 319.435 9.9389 314.903 8.25977C311.982 7.17327 309.162 5.79046 306.04 5.49414C301.81 5.00028 300.904 5.79046 295.767 6.08678C291.437 6.38309 285.797 5.09905 281.466 6.08678C279.452 6.48186 277.539 6.77818 275.524 6.97573Z" stroke="#202020" stroke-width="13.9632" stroke-miterlimit="10" stroke-dasharray="698.16 698.16"/>
</svg>
