<svg width="56" height="59" viewBox="0 0 56 59" fill="none" xmlns="http://www.w3.org/2000/svg">
<path d="M53.6833 29.3697C54.0983 29.2827 53.7243 29.2697 53.3233 29.2627C53.906 29.2013 54.5026 29.1403 55.1133 29.0797C41.6523 27.7327 35.5263 26.5367 32.3343 20.7097C32.3663 20.7657 32.3973 20.8247 32.4343 20.8757L32.4453 20.8427C32.2643 20.5257 32.1313 20.2967 32.2453 20.5427C32.0953 20.2613 31.953 19.9697 31.8183 19.6677C31.9553 19.9187 32.0183 19.9477 32.0263 19.8487C32.0169 19.6424 31.9833 19.438 31.9263 19.2397C31.9133 19.2337 31.9013 19.2327 31.8603 19.1587C31.8393 19.1217 31.8093 19.0677 31.7673 18.9847C31.7253 18.9017 31.6813 18.7847 31.6133 18.6407C31.6563 18.8637 32.1133 19.9887 31.8573 19.4997C31.7663 19.2997 31.7053 19.1627 31.6573 19.0587C31.6264 18.9822 31.5997 18.9041 31.5773 18.8247C31.5423 18.7087 31.5333 18.6427 31.4713 18.4437C31.5043 18.6187 31.3903 18.3677 31.2713 18.0957C31.2075 17.9283 31.1289 17.767 31.0363 17.6137C30.523 15.9528 30.127 14.258 29.8513 12.5417C29.8633 12.5727 29.8703 12.5677 29.8663 12.5017L29.7793 12.0267C29.7573 11.5827 29.9973 12.9137 29.9213 12.3077C30.0643 12.9407 30.2453 13.6457 30.4083 14.5407L30.3723 14.7207C30.3443 14.4376 30.2932 14.1573 30.2193 13.8827C30.2693 14.0667 30.3193 14.4117 30.3773 14.7617C30.4175 15.0676 30.4951 15.3675 30.6083 15.6547C30.5703 15.4447 30.5423 15.2337 30.5083 15.0237C30.6863 15.6517 30.9553 16.4137 31.1703 17.1897C31.1373 16.8217 31.1033 17.0147 31.0323 16.4447C31.0393 16.5697 31.0103 16.5077 30.9633 16.3577C30.9163 16.2077 30.8503 15.9677 30.7963 15.7357C30.6763 15.2727 30.5883 14.8427 30.6203 15.2407C30.5981 14.9667 30.5603 14.6943 30.5073 14.4247C30.4463 14.1109 30.4019 13.7941 30.3743 13.4757C30.3573 13.5017 30.3743 13.7497 30.2673 13.0837C30.2553 13.0547 30.2343 12.9837 30.2203 12.9407C30.2203 12.9197 30.2203 12.9127 30.2143 12.8957V12.9327C30.2063 12.9047 30.2033 12.9017 30.2143 12.9467C30.2296 13.0607 30.2376 13.1756 30.2383 13.2907C30.1561 13.0088 30.0893 12.7227 30.0383 12.4337C29.9713 12.0837 29.9043 11.7337 29.8643 11.5507C29.8143 11.1507 29.9163 11.7137 29.9083 11.4937L29.7833 10.9617C29.8283 10.9017 29.7203 9.89566 29.8833 10.8277L29.7663 9.98566C29.7283 9.48566 29.6543 8.80166 29.5803 8.38566C29.5443 7.98566 29.4043 7.38566 29.4853 7.72766L29.3053 6.40466L29.3173 6.39166C29.1843 5.08166 28.9583 3.70066 28.9173 2.19166C28.8643 1.75066 28.8073 1.29166 28.7593 0.55466L28.7923 0.40766C28.7813 0.30766 28.7723 0.20066 28.7623 0.0766602H28.1083C28.0533 0.66966 27.9473 1.48766 27.9683 1.69366C27.7943 2.29366 27.6943 4.44366 27.5683 5.43766L27.6243 5.47966C27.5513 6.16466 27.4993 6.82366 27.4243 7.67966L27.4843 7.63266C27.4433 8.36966 27.2233 9.51266 27.0633 10.6667C27.0726 10.4717 27.099 10.278 27.1423 10.0877C26.8343 11.4527 26.7923 13.0067 26.4473 14.2317C26.4121 14.484 26.358 14.7334 26.2853 14.9777C26.2923 14.9487 26.2963 14.9237 26.3003 14.9017C26.2933 14.9327 26.2813 14.9797 26.2693 15.0277L26.1443 15.4487C26.1873 15.3227 26.2243 15.2017 26.2543 15.0957C26.2013 15.3327 26.1233 15.6957 26.0463 16.0447L25.9513 16.1817C25.9433 16.2097 25.9373 16.2327 25.9303 16.2617C25.8173 16.5997 25.8813 16.5427 25.9723 16.3687C25.9323 16.5457 25.9033 16.7097 25.8783 16.8367C25.7103 17.0927 25.6353 17.7547 25.4043 18.0997C25.3795 18.2268 25.3461 18.3521 25.3043 18.4747C25.2433 18.6487 25.1713 18.8627 25.0923 19.0747C24.9603 19.4327 24.8173 19.7807 24.7803 19.9437C24.6903 20.1237 24.5903 20.2977 24.5013 20.4727C24.4123 20.6477 24.3153 20.8177 24.2383 20.9837L24.0833 21.1017C23.9603 21.3707 23.8213 21.6337 23.6783 21.8967C23.5685 22.0376 23.4471 22.169 23.3153 22.2897C23.2613 22.3237 23.3023 22.2557 23.4373 22.0227C23.2283 22.3491 22.9967 22.6605 22.7443 22.9547C22.5783 23.1347 22.4443 23.3037 22.0443 23.7147L22.0533 23.6487C21.7433 23.9584 21.4048 24.2383 21.0423 24.4847C20.8423 24.6047 20.4953 24.8177 20.0483 25.0737C19.5163 25.3675 18.9688 25.6326 18.4083 25.8677C17.7548 26.1407 17.0872 26.3787 16.4083 26.5807C15.7213 26.7857 15.0373 26.9497 14.4303 27.0747C14.6823 27.0797 14.3973 27.1317 14.0403 27.1947C13.7592 27.2217 13.4827 27.2842 13.2173 27.3807C13.0683 27.3807 12.7243 27.4307 13.1173 27.3287C11.8803 27.6007 11.2323 27.6287 10.3803 27.8437C10.2303 27.8377 10.6413 27.7597 10.5083 27.7627C10.3348 27.8055 10.1583 27.8352 9.9803 27.8517C9.8483 27.8517 10.1603 27.8017 10.3563 27.7567C9.0713 27.9567 8.9563 28.0567 8.8753 28.1517C8.38512 28.1765 7.89833 28.2472 7.4213 28.3627C7.1893 28.3627 6.8033 28.3827 7.6073 28.2737L6.0453 28.4487C5.62478 28.4791 5.20703 28.5399 4.7953 28.6307C4.6503 28.6307 4.1603 28.6937 4.0413 28.7147C3.0213 28.8147 2.9313 28.8217 1.9303 28.9287L2.2093 28.9117C2.1407 28.9331 2.07092 28.9504 2.0003 28.9637L1.7923 28.9327V28.9957H1.7623L0.904297 29.0957L1.7623 29.1717H1.7923V29.2357L2.1703 29.2157C2.3893 29.2427 2.6393 29.2757 2.9463 29.3037L2.9233 29.3097C4.7653 29.5617 3.7233 29.3627 5.5413 29.6307L5.4493 29.5697C5.6353 29.4797 7.0553 29.8167 8.1163 29.9137L7.7393 29.8357C8.3233 29.8727 9.3263 30.1927 9.8973 30.2947C10.0223 30.3227 9.6973 30.2807 9.5203 30.2617C10.2673 30.4027 10.3203 30.3967 10.3203 30.3707C10.3203 30.3447 10.2863 30.3017 10.8483 30.3817C11.0483 30.4507 10.5653 30.4247 11.3153 30.5577C11.5003 30.6027 12.0503 30.6667 12.6783 30.7577C13.2951 30.8431 13.9054 30.9697 14.5053 31.1367C14.2923 31.0597 14.0783 30.9827 14.5953 31.0797C14.7953 31.1267 15.0173 31.1877 15.2603 31.2567C15.5033 31.3257 15.7603 31.4067 16.0063 31.4907L16.7363 31.7267C16.9663 31.7967 17.1763 31.8607 17.3543 31.8997C17.4453 31.9407 17.4793 31.9597 17.4803 31.9677C17.6263 32.0117 17.8113 32.0817 18.0183 32.1537C18.2253 32.2257 18.4433 32.3177 18.6583 32.4007C18.8733 32.4837 19.0763 32.5727 19.2473 32.6507C19.4183 32.7287 19.5603 32.7857 19.6473 32.8177C19.8551 32.9886 20.078 33.1402 20.3133 33.2707C20.6293 33.4617 20.9993 33.7007 21.3443 33.9437C22.0293 34.4337 22.5813 34.9667 22.5053 35.0167C22.9141 35.432 23.289 35.8794 23.6263 36.3547L23.5843 36.3267C23.8953 36.7837 24.0933 37.0997 24.2463 37.3407C24.3223 37.4617 24.3893 37.5627 24.4463 37.6537C24.5033 37.7447 24.5583 37.8277 24.6133 37.9107C24.7133 38.1427 24.6133 37.9827 24.5983 37.9677C24.6873 38.1477 24.7563 38.3107 24.8213 38.4577C24.8863 38.6047 24.9413 38.7347 24.9903 38.8577C25.0393 38.9807 25.0853 39.0867 25.1283 39.1897C25.1713 39.2927 25.2073 39.3897 25.2463 39.4837C25.4013 39.8597 25.5463 40.2057 25.7953 40.8327L25.7773 40.9797C25.8369 41.1486 25.888 41.3205 25.9303 41.4947C25.9923 41.7447 26.0713 42.0597 26.1463 42.4137C26.3053 43.1207 26.4773 43.9767 26.6513 44.7377C26.6239 44.6862 26.6043 44.6309 26.5933 44.5737C26.7884 45.4987 26.9349 46.4333 27.0323 47.3737C27.0752 48.0436 27.1912 48.7069 27.3783 49.3517L27.5663 50.4967C27.4103 49.0067 27.6843 50.7097 27.6483 50.0967C27.7313 50.6807 27.7543 51.6167 27.6653 50.8967V50.7827C27.5943 50.6557 27.6353 51.1187 27.6833 51.6097C27.7361 51.9379 27.7566 52.2705 27.7443 52.6027C27.9203 54.3027 28.0513 55.9867 28.1753 57.6337C28.156 57.7703 28.1376 57.907 28.1203 58.0437H28.1313C28.1613 57.8987 28.1723 58.0987 28.2033 58.0167V58.0797H28.6613V58.0437C28.6783 57.8787 28.6923 57.7147 28.7093 57.5497C28.7323 57.8437 28.7383 57.9877 28.7353 58.0437H28.7463C28.7383 57.8677 28.7293 57.6917 28.7133 57.5157C28.7926 56.6697 28.872 55.8347 28.9513 55.0107L28.8373 55.3207L28.9313 54.3627C28.9753 54.1127 29.0313 54.0297 28.9613 54.7137C29.0224 54.3265 29.0402 53.9338 29.0143 53.5427C29.1813 52.2067 29.0623 54.0737 29.1053 53.6627L29.1543 53.1047L29.1323 53.2297C29.1211 52.789 29.1428 52.3481 29.1973 51.9107C29.2693 51.3927 29.2793 51.6487 29.3033 51.4447C29.3033 51.4447 29.3103 51.4287 29.3173 51.3817C29.3243 51.3347 29.3303 51.2547 29.3413 51.1317L29.4863 49.9317L29.3623 50.4067C29.3903 49.8697 29.5023 49.2737 29.3563 49.8227C29.4673 49.4227 29.6123 48.2987 29.7733 47.2227C29.9343 46.1467 30.1103 45.1057 30.1733 44.8597C30.2781 44.0596 30.4338 43.267 30.6393 42.4867C30.5703 42.7067 30.4613 42.8267 30.6633 42.0547C30.7043 42.2117 30.8143 41.8617 30.9543 41.4007C31.0789 40.9657 31.2363 40.5408 31.4253 40.1297C31.3903 40.1877 31.4043 40.1197 31.4473 39.9827C31.4723 39.9007 31.5063 39.7957 31.5473 39.6827C31.5883 39.5697 31.6353 39.4417 31.6813 39.3187C31.8683 38.8277 32.0563 38.3787 31.8263 38.7777C32.1103 38.1697 31.8963 38.7587 32.1413 38.3107C32.4868 37.5109 32.9335 36.7588 33.4703 36.0727C34.0788 35.2974 34.782 34.6014 35.5633 34.0007C35.5773 33.9677 35.2823 34.1557 35.6133 33.8677C35.9283 33.6757 36.2503 33.4957 36.5823 33.3337C36.7027 33.2523 36.8188 33.1649 36.9303 33.0717C37.121 32.9365 37.3297 32.8288 37.5503 32.7517C37.4503 32.7857 37.2893 32.8377 37.5353 32.7077C39.4888 31.8394 41.5356 31.1982 43.6353 30.7967C45.7768 30.3603 47.9428 30.0541 50.1213 29.8797C49.5323 29.9167 49.9213 29.8637 50.3673 29.8097C50.0753 29.8357 50.3673 29.7637 50.3063 29.7457C50.9123 29.6967 51.5173 29.6517 52.1243 29.6087C52.4913 29.5334 52.8627 29.4813 53.2363 29.4527C53.585 29.4291 53.9315 29.3807 54.2733 29.3077C54.1613 29.3247 54.0473 29.3367 53.9583 29.3487L53.6833 29.3697ZM31.7833 19.5987C31.632 19.2567 31.4873 18.9007 31.3493 18.5307C31.4673 18.7817 31.6413 19.2037 31.7833 19.5987ZM31.2833 18.3387H31.2773C31.2623 18.2987 31.2483 18.2587 31.2343 18.2177L31.2833 18.3387ZM29.6483 9.33866L29.6423 9.31666C29.6073 8.84866 29.6183 9.01466 29.6493 9.33966L29.6483 9.33866ZM29.0703 5.37466C29.2023 6.41766 29.0523 5.83266 29.0863 6.01366C29.1341 6.60875 29.223 7.19982 29.3523 7.78266C29.4628 8.28307 29.5347 8.79123 29.5673 9.30266C29.5903 9.95366 29.4463 9.34466 29.4193 9.49266C29.2863 8.64566 29.2963 8.18366 29.2283 7.60766L29.2803 8.32066C29.2092 7.94134 29.1588 7.55845 29.1293 7.17366C29.1293 7.24066 29.1353 7.34066 29.1453 7.46866C29.004 6.20199 28.867 4.85533 28.7343 3.42866C28.8323 3.81066 28.9543 4.51666 29.0713 5.37566L29.0703 5.37466ZM28.2893 1.23666C28.3043 1.26966 28.3333 1.17566 28.3523 1.10166C28.3276 1.38833 28.3033 1.67199 28.2793 1.95266C28.2763 1.72366 28.2793 1.46166 28.2903 1.23766L28.2893 1.23666ZM27.9643 5.01466C27.9709 4.97698 27.9841 4.94075 28.0033 4.90766C27.9693 5.25666 27.9343 5.59966 27.9033 5.93766L27.8093 5.95066L27.8883 6.08166C27.8523 6.42299 27.8163 6.75866 27.7803 7.08866C27.7103 7.08866 27.6553 7.01966 27.6423 6.88866C27.6573 6.78766 27.8883 5.34866 27.9643 5.01466ZM27.0233 11.8087L27.1233 10.8787C27.1293 11.1287 27.1293 11.5717 27.1133 12.0657C27.0266 12.599 26.9363 13.1113 26.8423 13.6027C26.8543 13.1467 26.8823 12.6027 26.9483 12.0347L27.0233 11.8087ZM24.7773 19.9397C24.7722 19.9613 24.7692 19.9834 24.7683 20.0057C24.7523 20.0127 24.7043 20.1027 24.7783 19.9407L24.7773 19.9397ZM23.6283 21.9737C23.6113 22.0387 23.6633 22.0307 23.7283 22.0167C23.5756 22.228 23.4176 22.4327 23.2543 22.6307C23.3843 22.4147 23.5123 22.1957 23.6293 21.9747L23.6283 21.9737ZM8.6033 28.2217C8.7603 28.2107 8.6353 28.2527 8.4283 28.3077C8.5153 28.2907 8.5973 28.2737 8.6613 28.2597C8.8503 28.2437 8.9233 28.2467 8.9233 28.2597L8.2783 28.3467L8.4273 28.3077L8.1043 28.3697L7.8383 28.4037C7.6263 28.4117 7.4453 28.4157 7.3163 28.4227C7.7483 28.3607 8.1773 28.2907 8.6043 28.2237L8.6033 28.2217ZM29.2673 51.5217C29.2973 51.0927 29.3003 51.2137 29.3033 51.3337L29.2673 51.5217Z" fill="#1D1D1B"/>
</svg>
