<svg width="54" height="3" viewBox="0 0 54 3" fill="none" xmlns="http://www.w3.org/2000/svg">
<path d="M28.0296 0.421743C28.7333 0.448881 29.6448 0.549947 30.3417 0.530338C30.5292 0.609664 30.7318 0.650124 30.9364 0.649129L30.9599 0.530386L31.1448 0.570103C31.2208 0.534544 31.0028 0.546926 31.1362 0.502426L31.2058 0.577031C31.2208 0.534544 31.6821 0.553902 31.3718 0.464458L32.0934 0.473997C32.253 0.468594 32.1856 0.570832 32.362 0.547864C32.3978 0.513664 32.2992 0.523001 32.3132 0.480548C32.842 0.400663 32.9226 0.720787 33.4155 0.674103L33.3737 0.657527C33.4573 0.690678 33.617 0.689268 33.6186 0.706205C33.5549 0.82531 33.5307 0.640214 33.3796 0.708303C33.3914 0.807856 33.5661 0.765955 33.5565 0.842246C33.6717 0.807359 33.7398 0.866025 33.84 0.873625C34.0119 0.812826 34.2578 0.859471 34.387 0.784128C34.4925 0.858757 34.6152 0.907114 34.7445 0.924949C34.8747 0.848572 34.715 0.848984 34.8912 0.820026L34.9191 0.879054C35.0631 0.874173 35.0408 0.855937 35.0357 0.828124C35.1903 0.828884 35.1634 0.91076 35.3569 0.877216L35.2517 0.817808C35.3845 0.8373 35.5192 0.842461 35.6531 0.833198C35.6519 0.799255 35.5685 0.800082 35.51 0.808059C35.6193 0.723394 35.6949 0.849773 35.7534 0.841796C35.7368 0.867347 35.598 0.876046 35.665 0.934748C35.7678 0.92627 35.8741 1.01862 35.9459 0.951222L35.8408 0.892812C36.0486 0.942744 35.9465 0.968193 36.187 0.951051C36.1745 0.946477 36.1802 0.932292 36.1756 0.919453C36.3247 0.997363 36.5213 0.93373 36.7428 0.933223L36.701 0.916648C36.7904 0.938608 36.8387 0.991947 36.887 0.988312C36.7603 1.01959 36.795 1.03741 36.7825 1.0918C36.9502 0.998165 37.0361 1.20916 37.3094 1.15792C37.3082 1.12398 37.2407 1.08228 37.1646 1.11584C37.0736 1.01897 37.0621 0.929404 36.8965 0.880039C37.0004 0.905505 37.1205 0.921427 37.0964 0.879266L37.1275 0.972167C37.1905 0.976031 37.2397 0.968367 37.2873 0.972754C37.3131 1.03185 37.1598 1.06603 37.3045 1.10711C37.4674 1.14057 37.3928 1.01416 37.418 1.05628C37.6421 1.09767 37.5091 1.15315 37.7299 1.13168C37.708 1.12343 37.6661 1.10685 37.6479 1.11547C37.8033 1.08122 38.029 1.14054 38.0766 1.03098C38.0541 1.00575 38.0498 0.971914 37.9913 0.979891L37.9919 0.996862C37.8229 0.911628 38.134 1.02204 38.0819 0.920847C38.0686 0.980271 38.2899 0.972776 38.3864 0.964507L38.3548 1.03155C38.6789 1.24447 38.3397 0.896123 38.6604 0.931239C38.8683 0.982169 38.5827 0.947865 38.7071 0.999623C38.8354 0.964748 38.9692 0.953769 39.1017 0.967268C39.1584 0.941355 39.2747 0.90843 39.2854 0.832104C39.4082 0.865926 39.6606 0.807399 39.7303 0.884001C39.5181 0.942167 39.5211 0.798129 39.2731 0.891493L39.3407 0.967166C39.5093 0.985076 39.6789 0.991686 39.8484 0.986952C39.8242 1.00077 39.8135 1.02012 39.8285 1.0366C40.0061 1.09209 40.1906 1.12384 40.377 1.13097C40.4097 1.0639 40.2719 1.07156 40.1685 1.06307C40.3223 1.01288 40.3283 1.06365 40.5658 1.04961C40.5791 0.990188 40.406 1.04903 40.3802 0.989928L40.6418 1.01605C40.6412 1.01208 40.6411 1.00807 40.6414 1.00407C40.6779 1.10279 40.8411 0.997306 41.0011 1.03486C41.3807 1.046 41.4361 1.18206 41.6453 1.26893C41.7021 1.24401 41.7198 1.21943 41.6962 1.19324C41.6018 1.23442 41.619 1.19585 41.5873 1.17294C41.7156 1.18758 41.8695 1.08441 41.7989 1.04182C42.0063 1.07678 41.7245 1.09232 41.8484 1.12711L42.1277 1.12964C42.0934 1.17978 41.9948 1.18712 42.1385 1.22923C42.2511 1.24184 42.3646 1.24568 42.4779 1.24072C42.4554 1.2155 42.5298 1.165 42.4102 1.16405C42.4508 1.15208 42.4937 1.14909 42.5356 1.15527C42.5776 1.16146 42.6176 1.17668 42.6527 1.19982C42.4779 1.24072 42.9369 1.25316 42.8056 1.32758L42.9804 1.28667C42.9402 1.28803 42.9369 1.25216 42.8764 1.26021C42.9272 1.18452 43.0185 1.28638 43.0838 1.29617C43.1451 1.28309 43.3048 1.28168 43.3181 1.25224C43.3539 1.26369 43.3919 1.26709 43.4292 1.26218C43.4665 1.25728 43.5022 1.24421 43.5335 1.22396C43.6145 1.2422 43.5353 1.27487 43.562 1.29996L43.8403 1.30252C43.8563 1.26 43.8819 1.14219 43.8411 1.12458C43.9457 1.16801 43.8756 1.25235 44.0353 1.25294C43.9457 1.16701 44.2476 1.19577 44.1172 1.09324C44.2776 1.04419 44.4487 1.03839 44.6122 1.07647C44.6992 1.14549 44.4567 1.10772 44.4633 1.17547C44.8655 1.21482 44.8836 1.40212 45.1817 1.38103L45.105 1.39662C45.2008 1.40879 45.2925 1.44191 45.3733 1.49349C45.3249 1.40817 45.588 1.27631 45.891 1.30603C45.9152 1.34918 45.7195 1.3798 45.7673 1.44815L45.9679 1.46834C45.9832 1.46283 45.961 1.44759 45.9348 1.43548C46.1144 1.47238 46.2735 1.33905 46.3224 1.43934L46.5089 1.32408L46.4354 1.37354C46.4596 1.4157 46.6613 1.43586 46.7021 1.45347C46.7663 1.47657 46.8349 1.48599 46.9031 1.48109C46.9714 1.47619 47.0378 1.45709 47.0978 1.42507C47.0609 1.45831 46.9686 1.5294 47.1313 1.55288C47.1336 1.41686 47.4731 1.51631 47.4704 1.44144C47.5355 1.44623 47.6537 1.40924 47.6588 1.46504L47.6506 1.38036C47.662 1.49892 47.9013 1.50381 48.0837 1.53261C48.0469 1.37093 48.2843 1.5538 48.3699 1.41197C48.4007 1.52188 48.6935 1.46898 48.7226 1.56295C48.8632 1.57418 48.8523 1.47259 48.8892 1.43936L48.9536 1.48315C49.1162 1.4433 49.2824 1.41926 49.4498 1.41137L49.5926 1.51349L49.6488 1.4726C49.6714 1.49782 49.7926 1.5177 49.7155 1.5503L49.7947 1.54762C49.7985 1.65244 49.9052 1.58086 50.0616 1.63254C50.0992 1.61727 50.09 1.59159 50.0595 1.57563C50.1379 1.57797 50.1061 1.52308 50.1502 1.4896C50.0934 1.51451 50.4284 1.69008 50.2134 1.72735C50.1974 1.76987 50.3192 1.80573 50.3991 1.79103L50.4494 1.69936L50.5386 1.80329C50.6599 1.82217 50.7135 1.76538 50.8121 1.75804C50.7087 1.74755 50.5991 1.56535 50.8542 1.5807C50.7597 1.5612 50.6687 1.5286 50.5838 1.48391C50.6373 1.48209 50.6649 1.47416 50.5819 1.431C50.7832 1.46916 50.648 1.49173 50.8476 1.51295C50.8394 1.42827 50.8962 1.40336 51.0717 1.38242L50.9398 1.43887C50.9453 1.44908 50.9539 1.45748 50.9643 1.46302C50.9141 1.46972 50.9001 1.48319 50.8889 1.51455C50.928 1.51323 51.1176 1.62875 51.1519 1.57861C50.9503 1.70239 51.5002 1.69376 51.3649 1.7713C51.3875 1.79653 51.527 1.8068 51.5419 1.76531C51.3766 1.69594 51.6695 1.67303 51.6395 1.61307C51.7012 1.63897 51.5077 1.67151 51.5903 1.7057C51.6715 1.70545 51.7509 1.68227 51.8187 1.63899L51.7779 1.62238L51.9313 1.5882C51.9565 1.63032 51.7822 1.65621 51.9233 1.68142C51.9608 1.66416 52.1018 1.68837 52.0975 1.65453C52.0304 1.59583 52.0802 1.51918 51.9601 1.50326C52.0635 1.51175 52.373 1.52325 52.247 1.60149L52.3654 1.59748C52.2915 1.63297 52.0824 1.69502 52.3209 1.70793L52.3203 1.69096L52.4865 1.7543L52.558 1.7099C52.5588 1.73086 52.5832 1.75103 52.6439 1.74897C52.6595 1.72345 52.7178 1.71248 52.7115 1.67871C52.8918 1.6806 52.8635 1.72254 52.8901 1.74663C52.9778 1.75065 53.005 1.73174 52.962 1.68322C53.0522 1.67017 53.209 1.67485 53.2352 1.6C53.3628 1.59568 53.2238 1.62837 53.3216 1.65305C53.3182 1.55921 53.3854 1.50695 53.4482 1.42186C53.5205 1.33864 53.5713 1.23997 53.5966 1.13397C53.7393 1.2061 53.6184 1.08125 53.7466 1.03693C53.727 1.06358 53.6919 1.00679 53.6599 0.976891C53.628 0.946988 53.6009 0.93891 53.5907 1.02722C53.5928 0.990903 53.5914 0.95448 53.5867 0.918398C53.5374 0.892084 53.5359 0.938111 53.5259 0.975433C53.5159 1.01275 53.4923 1.04254 53.4332 1.00356C53.4316 0.958639 53.4597 0.910707 53.4691 0.857412C53.4794 0.830063 53.4793 0.800076 53.4689 0.77279C53.4585 0.745504 53.4384 0.722689 53.4123 0.708408C53.3608 0.796111 53.3689 0.620916 53.3093 0.711894C53.2984 0.752245 53.3287 0.763214 53.3411 0.791782L53.3133 0.792724C53.238 0.733303 53.2414 0.715193 53.267 0.681342C53.2926 0.647491 53.34 0.617899 53.3028 0.559185C53.1674 0.488808 53.1437 0.576569 53.1192 0.611383C53.0599 0.606384 53.0043 0.581387 52.9621 0.54074C53.0476 0.625804 53.1924 0.553931 53.1662 0.485848C53.0367 0.553205 52.883 0.405481 52.8346 0.348149C53.1537 0.337341 53.0343 0.399358 53.3512 0.387622C53.3653 0.435123 53.3075 0.489058 53.4507 0.54518C53.4074 0.458687 53.4957 0.507671 53.53 0.516504C53.4627 0.535777 53.5929 0.603333 53.596 0.659205C53.6656 0.675837 53.6521 0.501374 53.7766 0.640091L53.7226 0.684901L53.6654 0.72782C53.7115 0.777235 53.7486 0.662032 53.7774 0.804989C53.8101 0.709926 53.9058 0.792644 53.8191 0.589674C53.8697 0.622287 53.9093 0.668651 53.9329 0.722966C53.9565 0.777281 53.963 0.837134 53.9517 0.895041C53.9241 0.990186 53.8885 1.08299 53.8453 1.17252C53.8549 1.1542 53.8734 1.15358 53.8841 1.13522C53.8536 1.18543 53.8319 1.24021 53.8199 1.29732C53.8246 1.4301 53.9024 1.21456 53.9347 1.25146L53.9128 1.35915L53.8762 1.46034C53.8764 1.46633 53.8765 1.46833 53.8838 1.46908C53.8453 1.51636 53.8043 1.55273 53.8283 1.5899C53.8875 1.57051 53.9443 1.54479 53.9977 1.5132C53.9413 1.5813 53.8738 1.63998 53.7978 1.68689C53.8557 1.69093 53.7309 1.88907 53.8646 1.76759L53.8271 1.81284C53.8023 1.83867 53.7651 1.86692 53.7271 1.89719C53.6776 1.93367 53.625 1.96589 53.5698 1.99348L53.5904 2.07874C53.4953 2.09896 53.4876 2.08722 53.5806 2.03709C53.4785 2.08021 53.3664 2.09642 53.2557 2.08408C53.1382 2.08307 53.0494 2.07708 53.0977 2.1614C52.7958 2.10366 52.7154 2.13137 52.385 2.08559C52.6362 2.16404 52.098 2.18427 52.3642 2.22124C52.2078 2.25752 52.1756 2.16565 52.0525 2.14983C51.9373 2.18472 51.9877 2.26897 52.1125 2.30173L51.9658 2.26072L51.9664 2.27769L51.8399 2.227C51.7044 2.26957 51.81 2.31198 51.6711 2.31968L51.6426 2.24368L51.5472 2.28489C51.5831 2.25169 51.5011 2.23348 51.4008 2.22488L51.4014 2.24185L51.2792 2.223C51.3995 2.2729 51.1673 2.23579 51.2208 2.29095C51.1218 2.29096 51.023 2.28328 50.9253 2.26798L50.9596 2.21784C50.7144 2.16317 50.9468 2.29423 50.7468 2.29002L50.7612 2.23155C50.4706 2.31836 50.2759 2.14804 50.0627 2.20824C50.1829 2.22715 50.1503 2.29423 50.1487 2.27729C49.9232 2.26605 49.6996 2.23038 49.4823 2.17092C49.4111 2.2543 49.3933 2.27389 49.1977 2.3085C49.0571 2.29727 49.0362 2.28799 48.989 2.23661C48.8519 2.26424 48.5973 2.2029 48.5882 2.26518C48.5575 2.21424 48.4647 2.26936 48.3909 2.22488L48.3743 2.24944L48.3887 2.19098C48.1427 2.31326 47.9824 2.09779 47.7338 2.20316L47.7756 2.22074L47.6716 2.19328C47.655 2.21883 47.6958 2.23644 47.7001 2.27027L47.2216 2.26049L47.3171 2.22028C47.2136 2.20979 47.1507 2.14995 47.0344 2.18188C47.2232 2.27543 46.8756 2.17926 46.843 2.24633L46.947 2.2738C46.8075 2.26353 46.8075 2.26353 46.8198 2.20414C46.6385 2.1763 46.6917 2.30843 46.5265 2.24206L46.6461 2.24401C46.682 2.21081 46.5977 2.15869 46.5183 2.15738C46.499 2.16603 46.4422 2.18994 46.5023 2.1999C46.3601 2.17173 46.1435 2.19406 46.0818 2.16817C46.004 2.18379 46.0282 2.22695 46.0691 2.24456C45.7648 2.1809 45.9301 2.24927 45.6249 2.18764L45.6262 2.22158L45.5215 2.17715L45.3693 2.24328L45.4245 2.20142C45.3324 2.18121 45.2377 2.17398 45.1435 2.17996L45.1896 2.23137C44.9069 2.19297 44.8594 2.30253 44.5917 2.22264C44.5734 2.23125 44.6142 2.24886 44.6362 2.25712C44.3876 2.16558 44.4454 2.33854 44.1964 2.23403C44.2114 2.25151 44.1833 2.27146 44.1931 2.28612L44.0794 2.24899L44.0819 2.31687L43.9906 2.21401L43.9188 2.28141L43.8754 2.2479C43.7501 2.37309 43.5794 2.27092 43.4107 2.3636L43.4417 2.27959C43.0228 2.09387 42.4755 2.3473 41.9681 2.24954L41.9757 2.31725L41.7665 2.23138C41.6529 2.28121 41.8326 2.29111 41.7967 2.32431C41.5725 2.27993 41.7054 2.22146 41.4437 2.19434C41.3092 2.23588 41.4888 2.24578 41.5495 2.27171C41.2934 2.21828 41.031 2.19925 40.7695 2.21517C40.7692 2.20619 40.7553 2.19366 40.7686 2.19022C40.5829 2.17091 40.3961 2.16455 40.2094 2.17117C40.2105 2.20212 40.2582 2.20851 40.3028 2.21599C40.234 2.2296 40.1628 2.22547 40.0962 2.204L40.1633 2.2637C40.0244 2.2684 39.7596 2.2114 39.728 2.27844C39.7446 2.25289 39.7386 2.20212 39.6222 2.20206C39.5547 2.3043 39.2978 2.15008 39.1069 2.20053C39.1294 2.22575 39.2699 2.23499 39.2297 2.23535C39.1366 2.24527 39.0428 2.22412 38.9638 2.17539L38.989 2.21751L38.5434 2.14864C38.476 2.25088 38.1221 2.12194 38.1516 2.1979C37.9919 2.19732 38.2861 2.15636 38.0846 2.1392C38.0304 2.18102 37.9023 2.11339 37.9099 2.1811L37.9308 2.18939L37.7903 2.18115L37.8783 2.24914C37.7571 2.23225 37.6692 2.16427 37.6674 2.11435C37.5522 2.14924 37.3892 2.11478 37.3357 2.17456L37.3785 2.1911C37.0558 2.15805 36.8416 2.36222 36.5891 2.24383C36.5698 2.25248 36.5725 2.26938 36.6116 2.26906L36.4117 2.26883L36.4588 2.31921L36.1302 2.23539L36.1314 2.26933C35.9132 2.27672 35.5724 2.25428 35.2925 2.23777L35.3344 2.25435C35.0293 2.19572 35.0385 2.28036 34.8186 2.23884C34.8244 2.24626 34.8325 2.25161 34.8418 2.25404L34.6355 2.24904L34.68 2.28251C34.532 2.20756 34.2525 2.37096 34.3451 2.31085C34.2605 2.27773 34.1158 2.23666 34.0916 2.1945C33.8718 2.18695 34.0375 2.23731 33.9014 2.26391C33.7429 2.26928 33.7149 2.20626 33.4994 2.23354L33.5007 2.26749C33.3974 2.25999 33.3377 2.23502 33.1973 2.22779L33.2391 2.24436C33.0108 2.17013 32.953 2.33901 32.7745 2.18913C32.6786 2.21537 32.4963 2.19056 32.505 2.25923C32.2199 2.21092 31.9985 2.18743 31.715 2.15605C31.6696 2.26654 31.654 2.14813 31.482 2.20992L31.4954 2.1505C31.0951 2.13807 30.6344 2.27962 30.1935 2.25257L30.1812 2.31196L30.0933 2.24597C29.6181 2.27006 29.0034 2.28289 28.6242 2.28374C28.4614 2.22442 28.2882 2.19634 28.1143 2.20106L28.1352 2.20935C27.7767 2.16495 27.4147 2.15512 27.0542 2.17999C27.0778 2.20518 27.0403 2.22245 27.0821 2.23902C26.9932 2.17307 26.8625 2.23447 26.7822 2.23619L26.8764 2.19201C26.825 2.1722 26.7693 2.16552 26.7145 2.17263C26.6597 2.17973 26.6078 2.20038 26.5636 2.2326L26.3943 2.16836C26.3832 2.17474 26.366 2.18332 26.3643 2.19337L26.3488 2.16291L26.2599 2.24089C26.2181 2.22431 25.9948 2.20389 25.9251 2.12828C25.9085 2.15383 25.7515 2.17414 25.8737 2.189L25.2562 2.20991L25.352 2.18168C25.3633 2.12233 25.1786 2.0876 25.0837 2.1128C25.209 2.16053 25.095 2.19738 25.0409 2.2412C24.9573 2.20904 25.1132 2.18877 25.0688 2.15629C24.9458 2.1142 24.8139 2.10285 24.6853 2.1233L24.748 2.14717C24.605 2.12502 24.5448 2.22901 24.3994 2.22395C24.273 2.17625 24.1798 2.22139 24.2049 2.11858C24.0218 2.0978 24.1353 2.18791 24.0759 2.19792C24.0146 2.17733 23.9495 2.16985 23.885 2.17601C23.8204 2.18216 23.7581 2.2018 23.7021 2.23357C23.6009 2.08407 23.2105 2.28821 23.173 2.16253L23.0241 2.23355C23.0168 2.19845 22.9972 2.1669 22.9685 2.14433C22.9399 2.12176 22.904 2.1096 22.8671 2.10992C22.753 2.14677 22.7809 2.2058 22.7461 2.23997L22.6674 2.11469C22.0086 2.24895 21.137 2.16653 20.4158 2.28492C20.0487 2.24055 19.6789 2.21969 19.309 2.22246L19.3507 2.23803L18.9771 2.27668L19.2479 2.21553C19.1745 2.19605 19.0991 2.18452 19.0231 2.18116C18.5399 2.26472 18.0477 2.28878 17.5583 2.25277C17.2277 2.11304 17.3425 2.38402 17.0277 2.28274C17.055 2.29581 17.065 2.31646 17.0892 2.32964C16.7984 2.2989 16.5099 2.25025 16.2256 2.18397C16.2678 2.32647 16.005 2.18344 16.0376 2.2583L16.0077 2.20034C15.9328 2.23687 15.7561 2.25285 15.7823 2.29394L15.6314 2.22409L15.6202 2.28444C15.4226 2.29113 15.0007 2.25145 14.8949 2.37498C14.2696 2.31559 13.6399 2.31416 13.0142 2.37071C12.8828 2.32912 12.7444 2.31276 12.6065 2.32255L12.4588 2.39753C12.3159 2.37937 12.1614 2.29365 12.0302 2.34208C12.0309 2.34616 12.0328 2.34996 12.0356 2.35305C12.0385 2.35614 12.0422 2.35838 12.0463 2.35952C11.9056 2.37478 11.7633 2.36399 11.6268 2.32775C11.4683 2.33312 11.3194 2.37715 11.365 2.44157C11.3464 2.32426 11.029 2.46695 11.029 2.46695L9.72377 2.53415C8.92872 2.57508 7.84649 2.62473 6.70275 2.65448C4.75524 2.7896 2.79849 2.7259 0.864698 2.46441C0.794724 2.40981 0.608142 2.37915 0.67561 2.30689C0.5318 2.29077 0.472758 2.39673 0.440827 2.33983C0.633868 2.29231 0.37365 2.19118 0.560359 2.11089L0.437419 2.10206C0.410216 2.062 0.605799 2.14233 0.572229 2.0685L0.611102 2.17514C0.680657 2.16813 0.745705 2.13844 0.795609 2.09092C0.890774 2.12968 0.955749 2.27441 1.17465 2.20103L1.11371 2.1971C1.29485 2.19096 1.22128 2.12248 1.25769 2.10326L1.21755 2.10462L1.36785 2.04355C1.25395 2.08539 1.05734 2.00509 1.16044 2.0066C1.37439 1.96737 1.10583 2.03544 1.26476 2.04205C1.36767 2.03856 1.33489 1.9867 1.32853 1.95293L1.50863 1.94683C1.50062 1.89612 1.38925 1.95087 1.46056 1.89948L1.68988 1.94369C1.72641 1.81351 1.93903 1.99522 2.03757 1.86994C1.87289 1.84653 2.05043 1.82652 2.0222 1.78649L2.42255 1.77293C2.45998 1.75367 2.31823 1.73748 2.37711 1.74149C2.45094 1.703 2.50272 1.76722 2.54282 1.76486C2.57552 1.72877 2.84128 1.75475 2.82687 1.66928C3.09645 1.60117 2.94598 1.7722 3.1963 1.71274C3.22736 1.65971 2.99007 1.70873 3.10545 1.65085L3.3685 1.65893C3.35302 1.63413 3.33007 1.61452 3.30275 1.60276C3.27542 1.591 3.24504 1.58764 3.21569 1.59314C3.77766 1.41873 4.35815 1.30652 4.94611 1.25865C5.03548 1.19365 4.87877 1.21995 4.81249 1.18221C5.2857 1.24614 5.46834 1.02406 5.8689 1.01648L5.87794 1.06716C6.49004 0.953187 7.11098 0.889687 7.73413 0.877337L7.66026 0.914823C7.76781 0.951158 7.87983 0.973578 7.99342 0.981502C8.00793 0.955022 7.91441 0.876227 8.09836 0.890987C8.06093 0.910247 7.98442 0.931829 8.00793 0.955022C8.85835 0.828046 9.71563 0.748945 10.5755 0.718118C11.7814 0.727245 13.0853 0.594119 14.2697 0.605975C14.0893 0.605088 14.1711 0.72926 14.3039 0.697774C14.6711 0.479429 14.9498 0.720874 15.3297 0.569069C15.9781 0.524368 16.6292 0.530055 17.2768 0.586075L17.288 0.525722C17.3828 0.497522 17.4101 0.53858 17.5102 0.543185L17.5096 0.526213C17.7467 0.50019 18.0352 0.557386 18.1711 0.526793L18.1808 0.594435C18.3221 0.598644 18.253 0.541011 18.3986 0.57806L18.3974 0.544117L18.5676 0.605322C18.5489 0.487009 18.9659 0.59183 19.0803 0.535978C19.3474 0.574868 19.6177 0.588806 19.8876 0.5776C19.938 0.516921 20.2779 0.514401 20.4942 0.482087C20.916 0.493785 21.5194 0.50933 22.0563 0.483145L22.0477 0.559401L22.188 0.563645C22.1874 0.546674 22.2046 0.538094 22.1868 0.529702C22.2949 0.442078 22.5103 0.555728 22.6227 0.500944C22.552 0.570307 22.5201 0.512417 22.4449 0.513963C22.3298 0.550848 22.4406 0.624058 22.5959 0.585814L22.5952 0.568843L22.6997 0.609283C22.711 0.549928 22.8068 0.521693 22.8191 0.462304C23.2349 0.512701 23.6532 0.541574 24.0722 0.5488C24.0224 0.482518 24.4149 0.565179 24.318 0.449516C24.6039 0.492805 24.2719 0.543035 24.4026 0.624568C24.4818 0.621884 24.5664 0.654001 24.5804 0.611549C24.5423 0.583852 24.6448 0.541397 24.5775 0.530684L24.7684 0.53921C24.7866 0.530596 24.7448 0.51402 24.7229 0.506766C25.1127 0.572525 25.4126 0.429429 25.7623 0.498544C25.7886 0.540636 25.6236 0.509241 25.6499 0.55233C26.0013 0.640379 25.9563 0.477979 26.2883 0.539701L26.2203 0.482032C26.2679 0.512222 26.3219 0.531815 26.3783 0.539409C26.4347 0.547003 26.4921 0.54241 26.5464 0.525959C26.577 0.457955 26.3981 0.470011 26.3144 0.433866C26.4338 0.429822 26.7364 0.450555 26.6448 0.51163C26.7879 0.534772 26.8403 0.474023 26.9169 0.455436C26.9175 0.472407 26.7836 0.500934 26.8671 0.532088C27.1105 0.501335 27.356 0.48801 27.6014 0.492221C27.6008 0.47525 27.6153 0.449769 27.5996 0.441307C27.7871 0.553902 27.7661 0.401681 28.0296 0.421743Z" fill="#202020"/>
</svg>
