<svg width="21" height="18" viewBox="0 0 21 18" fill="none" xmlns="http://www.w3.org/2000/svg">
<path d="M19.5052 7.16687C19.5799 7.18859 19.6593 7.18859 19.734 7.16687L20.4922 6.96709L19.3843 6.09005C19.0057 5.79038 18.0856 5.8673 17.9648 5.72046C17.8435 5.78689 17.7094 5.82653 17.5716 5.8367C17.4337 5.84687 17.2952 5.82733 17.1656 5.7794C17.2305 5.84632 17.2295 6.15798 16.9818 6.07907C17.1666 5.46274 16.5572 5.73844 16.4183 5.25497C16.5572 5.58261 15.6861 5.22401 15.9118 5.69349C15.712 5.61158 15.9338 5.45575 15.7949 5.28394C15.2565 5.45475 14.709 4.96429 14.0747 4.9563C14.0617 5.00625 14.0837 5.07917 14.0747 5.15608C14.0687 5.15608 14.0627 5.15608 14.0557 5.14709C13.8684 4.44805 13.5478 3.79174 13.1116 3.21422C12.6665 2.54555 12.3234 1.81433 12.0937 1.04461C12.1606 1.36226 12.0817 1.26936 12.0007 1.15349C12.0427 1.27036 11.9488 1.35327 11.9308 1.47713C11.8589 1.21076 11.7776 0.946713 11.6871 0.685001C11.5872 0.907756 11.3494 0.193542 11.3034 0.444266L11.3974 0.544156C11.3423 0.783769 11.3423 1.03274 11.3974 1.27236L11.1716 0.813859L8.6601 5.90226L6.96879 6.14799C6.98026 6.14676 6.9909 6.14144 6.99876 6.13301L6.97579 6.03312C6.8689 6.05509 6.80696 6.13301 6.87589 6.16597L6.57619 6.20992C6.73303 6.02513 6.52124 5.45575 6.30246 5.14609C6.30846 5.228 6.31945 5.30292 6.12864 5.44576C6.21555 5.53666 6.62014 5.61757 6.47129 5.81136C6.21255 5.94721 6.23753 5.7784 6.09068 5.69848C6.22055 5.88927 5.89088 6.0471 5.89088 6.31281L4.23054 6.55454C4.23443 6.53969 4.23446 6.52409 4.23061 6.50923C4.22676 6.49436 4.21917 6.48073 4.20856 6.46964L4.06071 6.52757C3.88988 6.34477 4.30846 6.20393 4.10067 6.137C4.28649 5.96319 4.48429 5.70448 4.79098 5.7774L4.89088 6.05809C4.87769 6.03374 4.85905 6.01278 4.83641 5.99682C4.81378 5.98086 4.78777 5.97034 4.76041 5.96609C4.73305 5.96184 4.70507 5.96396 4.67866 5.97229C4.65225 5.98063 4.62813 5.99495 4.60816 6.01414C4.70806 5.8683 5.10766 6.33978 5.18758 5.94321L4.95482 5.7734C5.14063 5.5976 5.35441 5.25497 5.62314 5.30891C5.4643 5.04121 5.5682 5.34987 5.33743 5.04321C5.55621 5.43477 4.67709 5.12212 4.99478 5.51968C4.75102 5.16008 4.64612 5.40281 4.35342 5.10913C4.3744 5.20303 4.4663 5.27795 4.24353 5.26296C4.23575 5.29462 4.224 5.32516 4.20856 5.35386H4.19258L4.20657 5.36385C4.19857 5.37984 4.19857 5.38183 4.20657 5.36385C4.26135 5.39376 4.30668 5.4384 4.33743 5.49271C4.26151 5.72645 3.91686 5.76941 3.81796 5.90026C3.68309 5.87329 3.85592 5.78339 3.771 5.69149L3.62215 5.88628C3.5742 5.67851 3.23054 5.58661 3.51426 5.41679L3.24153 5.44676C3.12281 5.38047 2.98506 5.35652 2.85092 5.37884L0.0637207 5.99416L2.09368 7.70827C2.1321 7.74205 2.17853 7.76544 2.22855 7.7762C2.28949 7.90006 2.62815 7.83513 2.42835 7.87609L2.82795 8.08186L2.79298 8.12282C3.0787 8.43847 3.66611 8.48042 3.74503 9.09475C3.91943 9.15104 4.06837 9.26706 4.16561 9.42239L4.06571 9.5872C4.24153 9.66912 4.33144 10.1046 4.52225 10.0217C4.32245 10.5162 5.08468 10.721 5.25451 11.0096L5.43134 10.8458C5.54271 10.9579 5.67289 11.0495 5.81595 11.1165C5.66111 11.4801 6.10866 11.9646 5.765 12.2493C5.7905 12.2876 5.80017 12.3342 5.79197 12.3795C5.78377 12.4248 5.75835 12.4651 5.72105 12.492C5.72156 12.4825 5.71912 12.4731 5.71405 12.465C5.70935 12.4783 5.706 12.492 5.70406 12.506C5.66111 12.544 5.61116 12.5819 5.5682 12.6259C5.61792 12.6005 5.66288 12.5667 5.70107 12.526C5.69212 12.6348 5.70227 12.7443 5.73104 12.8496L5.49727 12.8596V12.8876C5.39737 12.9875 5.58818 12.9965 5.769 12.9655C5.79509 13.0297 5.83229 13.0889 5.87889 13.1403C5.49927 13.1703 5.94982 13.4629 5.54023 13.5219C5.71605 13.6318 5.58318 14.1212 5.97179 14.2531C5.91885 14.2531 5.88788 14.278 5.89587 14.2151C5.82794 14.336 5.76101 14.4558 5.85391 14.5897H5.55421L5.89188 14.9353C5.69208 15.0752 5.57419 15.1281 5.38339 14.9213C5.65311 15.3868 5.45431 15.2739 5.73204 15.6775L5.54922 15.6286C5.53523 15.7534 5.74902 15.9942 5.58318 16.0421C5.53275 16.0709 5.48993 16.1113 5.45831 16.16L4.90686 16.9591L6.45831 16.8822C6.90686 16.8602 7.63912 16.2469 8.33542 16.2099C7.95381 15.7844 8.74701 16.2738 8.57319 15.8803C8.67309 15.9802 8.79496 15.9962 8.74401 16.151C9.00975 15.8663 9.32943 16.0781 9.38637 15.6395C9.48627 15.7394 9.40635 15.8453 9.47528 15.8973C9.48827 15.8583 9.52523 15.7414 9.59616 15.7974C9.66709 15.8533 9.59616 15.9202 9.57418 15.9972C9.89686 15.8024 9.74201 15.4278 9.59017 15.0792C9.84291 15.1491 9.91484 15.0792 9.92083 14.7985C10.0377 14.8774 10.1956 14.9403 10.0087 15.0892C10.1336 15.0442 10.8079 14.8764 10.6741 14.6017C10.746 14.6506 10.8469 14.5358 10.8609 14.4888C11.0043 14.4329 11.1447 14.3696 11.2815 14.299C11.5642 14.6486 11.5102 14.2581 11.8169 14.7395L11.8979 14.5238C12.1696 14.1132 12.1776 14.9973 12.5352 14.9743L12.4982 14.8075C12.724 14.7375 12.5981 15.6156 12.722 15.7474C12.735 15.8024 12.6391 15.7814 12.5792 15.7854C12.8339 16.2459 12.768 15.5476 13.0907 15.6395C13.0697 15.8104 12.8309 15.9662 13.0127 16.095C13.0497 16.2609 13.8229 15.9292 13.9458 16.3438C13.9458 16.2029 13.9458 16.0621 14.1226 16.0511C14.3494 16.121 14.4633 16.7593 14.8319 16.5116C14.8418 16.5467 14.839 16.5842 14.8239 16.6175C15.0287 16.6105 15.4153 16.7383 15.6091 16.6005C15.5362 16.8562 15.6381 16.9621 15.7949 17.013L17.5142 17.5674L17.0027 16.136C16.8908 15.8223 16.4613 15.4667 16.9408 15.3868L16.8099 14.8524H16.8858C16.8882 14.7311 16.8502 14.6125 16.7779 14.515C16.7056 14.4176 16.603 14.3469 16.4862 14.314C16.5212 14.2251 16.5981 14.273 16.6371 14.273C16.695 13.7436 16.6561 13.6977 16.2265 13.3351L16.4513 13.2512C16.2964 13.1593 16.69 12.458 16.3344 12.0095C16.3756 12.0075 16.4161 12.0207 16.4483 12.0465C16.1126 11.581 16.73 10.7659 16.1776 10.5801C16.3034 10.4862 16.4233 10.3803 16.5222 10.4902C17.1875 9.81096 18.0207 9.34148 18.6741 8.73414L18.3584 8.55734L18.5941 8.35756C18.709 8.35756 18.8629 8.47543 18.694 8.62027C18.9148 8.6802 18.8449 8.24268 18.7939 8.18375C19.2025 7.98397 18.9558 8.5923 19.0567 8.5054L19.1676 8.36056H19.1096C19.1156 8.16078 19.0197 8.03991 19.2215 7.8611C19.3913 7.79318 19.4333 7.955 19.4902 7.91804C19.5072 7.93602 19.5312 7.92903 19.5702 7.85411L19.8699 7.60239L19.5702 7.51449C19.6081 7.29273 19.8519 7.26376 19.5052 7.16687ZM6.2615 11.587L6.42834 11.5391L6.30346 11.2114C6.4623 11.3193 6.69207 11.5031 6.92584 11.7029L6.84192 12.1943C6.59713 12.048 6.39655 11.8382 6.2615 11.587ZM6.13263 9.88887C6.14348 9.85259 6.16111 9.8187 6.18458 9.78898L6.42234 10.0217L6.17459 10.2854L6.45531 10.0547L6.68908 10.2814C6.55784 10.4241 6.41145 10.5521 6.25251 10.663L6.20956 10.5292L6.18059 10.5831C6.13184 10.3541 6.11569 10.1194 6.13263 9.88588V9.88887ZM14.0707 5.17306C14.0656 5.19706 14.0558 5.21982 14.0419 5.24005C14.0281 5.26027 14.0103 5.27756 13.9898 5.29093L13.8109 4.98427L14.0707 5.17306ZM6.54122 6.20892L6.19157 6.25987C6.21078 6.23325 6.23508 6.21071 6.26307 6.19356C6.29106 6.17642 6.32218 6.165 6.35462 6.15999C6.38706 6.15497 6.42017 6.15644 6.45203 6.16433C6.4839 6.17222 6.51387 6.18636 6.54023 6.20593L6.54122 6.20892ZM6.11965 6.25687V6.27085H6.09567L6.11965 6.25687ZM3.04273 5.5976L3.03674 5.60958C2.8729 5.54066 2.93084 5.56863 3.04173 5.5956L3.04273 5.5976ZM3.43034 7.92903C3.11866 7.76321 3.50627 7.64035 3.42435 7.64035C3.06171 7.19983 2.64913 7.64035 2.43834 7.33468L1.36841 5.7734L2.91586 5.8643C2.96966 5.86896 3.02249 5.88141 3.0727 5.90126C3.31746 6.12402 3.15462 6.40071 3.22755 6.57852C3.16652 6.61172 3.09686 6.62566 3.02775 6.61847L2.85692 6.60049L2.9728 6.78829C3.05772 6.92513 3.04773 7.09894 3.14863 7.18785L3.06771 6.94012C3.19058 6.94012 3.36741 7.02303 3.38739 7.14589C3.38925 7.10619 3.381 7.06666 3.36341 7.03102L4.29348 7.93702C4.01294 8.03365 3.70758 8.03012 3.42934 7.92703L3.43034 7.92903ZM5.19058 9.10474C5.2434 9.05518 5.28203 8.99242 5.30247 8.92294L5.50227 9.11473C5.39791 9.13585 5.29002 9.13174 5.18758 9.10274L5.19058 9.10474ZM6.35541 15.0352L6.31645 15.265L5.93883 14.9653C6.07429 15.0038 6.21374 15.0266 6.35441 15.0332L6.35541 15.0352ZM9.58317 14.8794C9.52024 14.8564 9.50525 14.7465 9.50026 14.6057C9.48937 14.6384 9.48037 14.6718 9.47328 14.7056C9.44397 14.6986 9.41662 14.6851 9.39326 14.6661C9.36991 14.6471 9.35116 14.623 9.33842 14.5957L9.49726 14.5118V14.6117L9.53722 14.4928L9.60915 14.4548C9.68241 14.497 9.75813 14.5347 9.83592 14.5677L9.58317 14.8794ZM16.7879 15.1341C16.744 15.1685 16.7073 15.2113 16.6801 15.26L16.6661 15.222L16.7879 15.1341ZM15.7889 11.2554L15.772 11.2244L15.8918 10.8129C15.5002 11.1025 15.6841 10.4962 15.4423 10.5332C15.5422 10.3644 15.9748 10.3763 15.8419 10.5701L15.785 10.5651C15.8019 10.6019 15.8295 10.6327 15.8643 10.6534C15.8991 10.6741 15.9394 10.6837 15.9798 10.681L15.7889 11.2554ZM19.3783 7.83014C19.4313 7.6853 19.4453 7.75622 19.4643 7.83014H19.3783Z" fill="#FBED81"/>
</svg>
